<?xml version="1.0" encoding="UTF-8"?><svg id="Layer_2" xmlns="http://www.w3.org/2000/svg" xmlns:xlink="http://www.w3.org/1999/xlink" viewBox="0 0 453.24 165.74"><defs><style>.cls-1,.cls-2{fill:none;}.cls-3{fill:#454546;}.cls-2{clip-path:url(#clippath);}</style><clipPath id="clippath"><rect class="cls-1" width="453.24" height="165.74"/></clipPath></defs><g id="Layer_1-2"><g class="cls-2"><path class="cls-3" d="m68.23,110.9c-7.52,13.05-19.39,19.57-35.61,19.57C22.39,130.47,11.52,127.83,0,122.54L.18,0h22.92l.35,45.67c5.17-5.64,11.75-8.52,19.75-8.64,6.7,0,12.58,1.88,17.63,5.64,9.75,7.29,14.63,19.45,14.63,36.5,0,12.69-2.41,23.27-7.23,31.74m-34.56,1.06c1.06,0,2.12-.12,3.17-.35,10.11-1.88,15.16-12.58,15.16-32.09,0-4.58-.53-8.7-1.59-12.34-2.47-7.99-6.82-11.99-13.05-11.99-1.29,0-2.59.17-3.88.53-6.94,2.12-10.4,9.46-10.4,22.04l-.18,31.74c4,1.65,7.58,2.47,10.76,2.47"/><path class="cls-3" d="m127.91,117.95c-.47.94-1.12,1.88-1.94,2.82-4.94,6.47-11.75,9.7-20.45,9.7-5.17,0-9.94-1.29-14.28-3.88-8.46-4.94-12.69-12.87-12.69-23.8,0-5.52,1.35-10.4,4.05-14.63,6.23-9.52,17.63-14.28,34.2-14.28,2.58,0,4.76.06,6.52.18v-4.59c-.12-8.58-4.47-12.99-13.05-13.22-5.53,0-12.7,2.35-21.51,7.05l-7.58-16.57c.35-.24.7-.47,1.06-.71,10.46-5.88,21.63-8.82,33.5-8.82,4.7,0,8.99.71,12.87,2.12,11.75,4.23,17.63,13.99,17.63,29.27v35.79c0,.94.06,1.83.18,2.64.47,3.77,2.47,5.64,5.99,5.64.94,0,8.84-.53,15.51-5.03v17.24c-3.17.82-10.86,5.41-22.21,5.59-9.52.15-15.46-4.29-17.81-12.52m-12.34-6.52c5.17-1.64,7.76-7.7,7.76-18.16v-4.23c-1.06-.12-2.76-.18-5.11-.18-10.34.24-15.87,4.88-16.57,13.93,0,1.06.18,2.11.53,3.17,1.29,4.12,4.17,6.17,8.64,6.17,1.76,0,3.35-.23,4.76-.71"/><path class="cls-3" d="m162.5,129.64V38.79h21.51l.7,14.99c4.94-11.05,12.93-16.63,23.98-16.75,1.76,0,7.36.06,8.42.17l-1.79,21.61c-3.06-1.29-10.74-.45-13.33-.45-2.23,0-4.41.53-6.53,1.59-6.7,3.41-10.05,11.11-10.05,23.1v46.59h-22.92Z"/><path class="cls-3" d="m328.12,119.78c-3.3,4.13-9.57,10.7-37.66,10.52-13.52-.08-20.45-7.52-20.81-21.86v-38.08c0-1.88-.18-3.7-.53-5.46-1.41-6.47-4.7-9.7-9.87-9.7-1.76,0-3.47.35-5.11,1.06-7.29,3.41-10.93,12.28-10.93,26.62v46.77h-22.92V39.67h22.04l.35,11.11c6.11-9.05,14.16-13.63,24.15-13.75,4.35,0,8.4,1,12.17,3,9.05,4.94,13.58,14.28,13.58,28.03v39.14c-.44,9.31,14.83,7.12,20.93,2.11l14.61,10.47Z"/><path class="cls-3" d="m347.14,130.47c-9.29,0-17.4-2.35-24.33-7.05-11.99-8.34-17.98-21.92-17.98-40.73,0-12.46,2.94-22.68,8.81-30.68,7.29-9.99,17.57-14.99,30.86-14.99,4.11,0,7.93.41,11.46,1.23,16.46,4.23,24.68,19.39,24.68,45.49v6.52h-52.01c.35,2.59.88,5.05,1.59,7.4,3.29,9.52,9.58,14.28,18.87,14.28,7.17,0,14.87-2.23,23.1-6.7l6.7,15.16c-9.52,6.58-20.1,9.93-31.74,10.05m-5.47-75.46c-6.82,1.41-11.05,7.58-12.69,18.51l28.56-.18c0-2.12-.18-4.11-.53-6-1.41-8.46-5.64-12.69-12.7-12.69-.82,0-1.7.12-2.64.35"/><path class="cls-3" d="m452.9,63.43c-3.68,24.5-20.21,55.04-27.84,73.03-7.98,18.82-17.4,29.03-31.74,29.27-6.11,0-13.22-1.77-21.33-5.29l6.7-16.57c5.88,2.23,10.28,3.35,13.22,3.35,2,0,3.76-.47,5.29-1.41,3.41-1.88,6.88-7.82,10.4-17.81l-31.21-88.33h24.91l19.9,64.92s22.5-39.35,8.16-67.78c-1.77-3.5,27.34,1.31,23.53,26.62"/></g></g></svg>