<?xml version="1.0" encoding="UTF-8"?>
<svg id="Layer_1" data-name="Layer 1" xmlns="http://www.w3.org/2000/svg" viewBox="0 0 336.66 213.78">
  <defs>
    <style>
      .cls-1 {
        fill: #3d3d3d;
      }

      .cls-1, .cls-2, .cls-3, .cls-4, .cls-5, .cls-6, .cls-7, .cls-8 {
        stroke-width: 0px;
      }

      .cls-2, .cls-9 {
        fill: none;
      }

      .cls-3 {
        fill: #231f20;
      }

      .cls-3, .cls-4, .cls-5, .cls-7 {
        fill-rule: evenodd;
      }

      .cls-4 {
        fill: #444c4c;
      }

      .cls-5 {
        fill: #e3e4e8;
      }

      .cls-9 {
        stroke: #000;
        stroke-miterlimit: 10;
      }

      .cls-6 {
        fill: #749c72;
      }

      .cls-7, .cls-8 {
        fill: #fff;
      }
    </style>
  </defs>
  <g>
    <g>
      <path class="cls-7" d="M230.52,156.45l.82-35.27-3.53-.31,5.8-1.75-3.49-.99,3.44-1.29h-2.95l3.62-1.04-5.99-3.29,6.39,1.54-4.43-1.94,2.87.41-3.19-3.07,4.92,1.74-5.63-3.79,3.87,1.75-3.92-3.08,4.85,2.02-5.94-4.15,2.94-.14-1.89-1.33,2.37-.33-2.08-1.46,6.27,1.69s-7.09-2.78-6.31-2.89,4.1.78,4.1.78l-5.74-3.9,3.28.48-3.12-3.2,3.69-.51-3.83-2.46,1.42-.46-2.75-1.37,2.73-.65-2.53-.86,4.22-1.53-4.49-.45,4.1-.7-5.31-2.46,3.87.82-4.8-3.64,2.88-.53-5.21-.76,3.67-.64-2.89-.54,4.92-1.34-2.5-.6,3.2-1.12-4.1-1.45,3.84-.39-5.1-2.92,5.1-.98-4.99-.11,4.66-2.26-3.04-.65,5.03-1.5-3.32-.75,2.96-1.89-3.58-1.64,3.05-.29s-2.91-1.64-2.1-1.59,5.17-2.46,5.17-2.46l-6.91.55,4.21-1.64-3.29-1.06,2.31-.72-2.98-.26,5.14-2.59-4.1.43,3.57-2.37-3.35.06,6.31-5.96-3.89.93,2.87-2.54-3.79.82,4.52-3.28-3.86,1.21,5.23-5.83-5.52,3.39,3.85-7.11-3.4,4.5,2.15-4.87-3,2.57,2.88-4.43-3.55,2.51,1.51-3.7-4.31,3.81s4.1-6.21,3.53-5.59c-.57.61-4.25,3.28-4.25,3.28l2.39-5.03-1.89,2.26,1.15-4.33-2.7,2.8,2.17-6.62-1.44,1.14.2-2.46-1.9-.14,1.54-3.44-1.98,1.21.57-2.63-2.58,1.7,4.36-8.26-5.21,5.98.76-2.25-2.17,1.77,1.92-3.62-5.03,3.51.69-1.84-5.93,4.58,2.46-3.28-8.28,5.96,1.37-2.74-2.99,3.63.14-1.9-4.53,5.06.04-1.64-2.31,4.62.17-4.32-2.39,5.03.82-3.61-1.87,2.01-.22-1.58-1.69,3.28-.71-2.66-1.38,3.68-1.47-2.86-1.02,4.3-1.27-6.27-1.1,3.9-.97-2.15.08,2.54-2.2-3.33.13,2.94-1.92-3.23-.87,4.29-3.43-2.46v4.16l-1.07-1.87-1.18,3.12-.61-1.85-2.03,2.84-1.15-3.47-.6,2.46-2.59-4.21,1.25,5.2-2.71-5-.41,6.77-1.76-7.87.59,6.22-2.71-7.95,1.17,6.3-2.25-6.56v5.64l-1.29-6.93-.57,5.45-2.68-4.87-.08,5.26-2.03-7.91.21,7.38-1.98-3.25.21,3.46-2.29-4.92.18,4.27-2.97-3.23-1.15,4.32-.27-6.78-.82,5.74-2.89-5.38.82,5.12-2.53-3.03,1.64,4.33-2.34-3.28.72,4.21-3.01-4.29,2.3,5.05-3.35-3.84,2.29,8.56-1.31-3.45-.61,3.28-.82-3.28-1.45,2.08-.06-6.09-1.02,1.35.43-5.7-1.3,2.33-3.11-7,.17,4.1-4.84-7.79,1,3.35-2.82-3.84.91,2.7-8.08-6.94,2.62,3.39-3.91-3.08,1.8,2.3-3.5-1.25,1.57,3.54-1.37-.21,1.44,2.1-3.1-1.05,1.6,4.75-1.78-1.52.64,3.67-1.69-1.52.61,4.35-1.46-1.81.28,3.98-2.06-1.33,1.16,2.76-2.74-1.37,3.45,4.65-4.26-2.63,2.38,6.56-4.71-2.98,1.49,3.02-2.66-2.72,2.27,4.8-3.65-5.01,1.86,5.66-2.9-3.49,1.79,4.18-1.64-.98,2.51,6.5-1.71-.71,3.12,3.2-3.28-.61,3.91,3.08-3.96-.52,6.82,4.7-6.76-2.35,4.86,2.16-5.66-1.11,2.07,1.33-4.04-1.84,2.62,2.46-3.44-1.54,5.89,3.76h-3.89l6.21,1.84-6.63.65,5.2,2.64-2.22-.5,2.79,3.64-4.14-2.79,4.73,6.07-3.04-1.64,4.1,4.4-2.09-.52,3.9,2.02s-3.57.36-2.91.27,5.74,2.83,5.74,2.83l-5.3-.48,4.75,1.35-4.27.19,2.62,1.39-2.46.48,2.71,1.11-3.71.38,8.21.55-12.3,1.7,4.88,1.89-4.68,1.42,4.39.16-4.43,1.38,8.83.82-9.27,4.1,3.39.27-3.43,1.95,4.42-1.08-4.18,3.28,5.7-2.46-4.1,3.66,4.92-1.55-7.51,4.92,5.81-1.21-5.29,3.01h3.08l-2.74,1.53,1.64.52-3.11,1.3,2.46,1.27-3.19,1.64,2.09.11-4,1.64,3.71-.31-2.7,1.85,4.92-.41-4.39,1.28,4.67-.24-3.3,1.38,3.57-.35-3.39,1.64,5.55-.63-7.74,2.28,6.25-.46-4.67,2.12,4.85-.82-3.6,1.76,3.95-.55-4.77,2.8,4.71-.92-3.49,1.96,3.5-.89-3.71,2.26,6.8-.4-7.59,2.39,5.26.21-3.94,1.64,7.46-.36-6.14,2.19,3.24.09-3.48,1.02h5.1l-2.97,1.89,5.51.98-5.67.82,5.92,1.07-6.26.33,3.13,1.31-6.19.86,6.15.76-6.04.97,9.84.71-.82.3-6.22.75,4,.82-7.47.36,4.66,1.64h-2l-1.39-.14.61.14h-4.07l7.1,1.84-8.09.71,6.76,1.35-5.92-.12,6.72,1.08-6.56.37,3.98,1.23-2.04.41,3.89.21-.66.08-6.17-.45,2.69.88-2.14.26,4.67.7-5.51.89,1.74.24-.23.07,2.46.93-4.41-.43,5.74,1.53-6.32.23,2.3,2.51-2.3-1.33,2.04,2.66-3.22-.71"/>
      <path class="cls-3" d="M148.29,128.67c1.76,1.15,3.68,1.55,5.56,1.16,1.8-.4,2.34-2.01,4.92-2.23s5.12,1.27,8.67,1.57c3.56.31,6.41.41,9.27-.79,2.86-1.2,6.24-4.37,4.92-2.4s-4.92,3.69-5.91,4.1c-3.79.69-7.6,1.05-11.41,1.08-1.64-.19-3.1,1.07-5.47,1.41-1.76.29-3.54.13-5.27-.48-.82-.37-5.3-3.44-5.3-3.44h.02Z"/>
      <path class="cls-3" d="M137.3,83.32s1.64-.34,2.13-1.09c.71-1.13,1.95-1.82,3.28-1.83,1.71,0,2.69,1.34,3.71,2.12s1.24,1.53,2.02,1.43-1.26.75-1.95,1.53c-1.09.93-2.47,1.44-3.9,1.45-1.44-.13-2.72-.99-3.39-2.27-.89-1.47-1.89-1.33-1.89-1.33h0Z"/>
      <path class="cls-5" d="M231.42,156.23l1.38-.17-2.46-3.72,3.72.18-3.28-3.09,1.48-.2-2.39-1.73.45-.19,2.13-.1-.82-.47,3.48-1.5-3.94-2.01,3.51-.7-2.64-3.28h.12l-.34-.25h.07l-2.62-3.6,4.53,2.62-4.76-4.64,3.47,2.46-3.28-3.76,4.39,2.89-5.07-5.19,2.9.42-1.64-1.64,2.39.12-1.77-1.82,5.85,2.82s-6.45-4.06-5.66-4.02,3.91,1.53,3.91,1.53l-4.92-4.92,3.14,1.09-2.15-3.23.78-.18-.96-.08-.15-.23,3.72.19-1.64-1.54,1.3-.39-2.46-.71-.49-.46,1.48-.19-.34-.26,1.77-.66h-2.64l-.08-.07,3.39-.97-1.64-.91,2.53-1.09-2.85-1.49.82.11-.92-.87,2.46-.49.13.05-.08-.06h0l-2.64-3.24h.12l-1.68-1.28,3.44,1.43-5.94-4.15,2.94-.14-1.92-1.31,2.37-.33-2.08-1.46,6.27,1.69s-7.09-2.78-6.31-2.89,4.1.78,4.1.78l-5.74-3.9,3.28.48-3.12-3.2,3.69-.51-3.83-2.46,1.42-.46-2.75-1.37,2.73-.65-2.53-.86,4.22-1.53-4.49-.45,4.1-.7-5.31-2.46,3.87.82-4.8-3.64,2.88-.53-5.21-.76,3.67-.64-2.89-.54,4.92-1.34-2.5-.6,3.2-1.12-4.1-1.45,3.84-.39-5.1-2.92,5.1-.98-4.98-.11,4.65-2.25-3.04-.66,5.03-1.5-3.32-.75,2.96-1.89-3.58-1.64,3.05-.29s-2.91-1.64-2.1-1.59c.81.05,5.17-2.46,5.17-2.46l-6.9.55,4.2-1.64-3.29-1.06,2.32-.72-2.99-.25,5.14-2.6-4.1.43,3.57-2.37-3.35.06,6.31-5.96-3.89.93,2.87-2.54-3.79.82,4.51-3.28-3.85,1.21,5.23-5.83-5.52,3.39,3.85-7.11-3.4,4.5,2.15-4.87-3.01,2.57,2.89-4.43-3.55,2.51,1.51-3.71-4.31,3.82s4.1-6.21,3.53-5.59-4.25,3.28-4.25,3.28l2.39-5.03-1.89,2.26,1.15-4.33-2.7,2.8,2.17-6.62-1.44,1.14.2-2.46-1.9-.14,1.54-3.44-1.98,1.21.57-2.63-2.58,1.7,4.36-8.26-5.21,5.98.76-2.25-2.17,1.78,1.92-3.62-.29.2c-3.46,3.17-7.08,6.15-10.85,8.93-6.32,4.53-10.31,16.48-10.54,16.84s-.49.74-.77,1.12c-4.92,6.86-16.17,16.49-16.17,16.49l6.22-16.82-11.7,19.97,5.74-17.89-8.45,17.22,2.22-11.13-4.41,8.48,1.76-7.88s-4.48,11.33-7.38,15.14c-2.9,3.81-3.28,13.33-3.48,16.9-.2,3.57,1.23,8.15,1.23,8.15,0,0,3.79,10.08,2.24,16.22-.99,3.78-2.9,7.25-5.55,10.11l.82,21.65,15.91.53,6.48-2.6s6.03-.82,3.61,2.24c-2.43,3.06-8.35,4.68-10.46,5.89-2.12,1.21-7.61,1.84-10.13,2.53-2.52.69-8.9-.13-8.9-.13l2.85,4.17,2.01-3.58.6,4.36,1.53-3.86-.41,4.5s1.47-2.59,4.22,1.7c2.75,4.29,2.83,5.35,1.75,12.55"/>
      <path class="cls-3" d="M187.46,83.71s-1.82-.57-2.25-1.45c-.67-1.33-1.98-2.23-3.46-2.38-1.9-.2-3.14,1.2-4.36,1.94s-1.54,1.58-2.4,1.38,1.33.97,2.01,1.91c1.11,1.15,2.6,1.87,4.19,2.04,1.62.02,3.14-.8,4.03-2.16,1.15-1.54,2.25-1.28,2.25-1.28Z"/>
      <polygon class="cls-3" points="198.11 38.66 206.87 27.25 203.62 33.87 210.59 24.99 206.35 33.23 215.48 25.39 213.6 28.33 216.97 27.46 211.16 31.09 219.93 30.41 213.89 33.4 220.76 31.64 215.8 35.55 219.94 35.38 214.35 39.65 219.9 37 213.94 42.52 218.47 41.22 213.1 46.13 218.64 44.43 211.93 49.38 216.95 47.75 211.95 51.4 216.61 52.09 209.89 55.98 206.05 56.37 195.76 55.64 203.49 51.36 199.77 51.73 206.16 49.37 201.82 49.97 209.74 48.08 202.88 47.94 209.72 44.98 203.46 46.26 210.6 41.64 202.64 44.22 205 41.88 199.29 44.28 204.29 39.69 195.98 43.66 201.4 39.15 196.13 42.84 198.11 38.66"/>
      <polygon class="cls-3" points="128.73 38.85 120.37 27.91 120.92 30.93 114.21 25.14 117.71 30.03 110.93 26.67 117.26 31.7 111.28 30.11 115.87 33.23 110.69 31.67 116.07 35.63 111.8 34.87 114.89 36.87 109.76 35.69 113.94 38.74 109.13 37.93 113.37 41.38 110.16 40.48 115.3 45.67 111.05 43.04 114.86 47.35 112.48 46.6 115.2 48.78 112.48 48.62 120.59 52.86 116.96 48.94 122.12 51.31 118.25 47.55 125.36 50.46 117.4 44.31 121.04 45.42 116.27 40.03 125.5 47.62 123 45.02 128.01 47.27 122.66 41.57 131.02 46.72 122.45 39.05 126.65 40.34 121.41 34.49 128.73 38.85"/>
      <path class="cls-4" d="M158.87,109.26c4.92-.2,9.02,1.64,9.14,4.1.12,2.46-3.85,4.61-8.8,4.8s-9.02-1.64-9.13-4.1c-.11-2.46,3.85-4.61,8.79-4.8h0Z"/>
      <path class="cls-3" d="M148.31,111.95c-.12,2.27.71,2.9,1.71,2.75,1.01-.16,1.6-1.89,2.62-1.83s2.62.33,3.02,1.64.46,2.46-1.24,2.46-2.74-.55-3.23-1.31-2.03.1-1.41,1.2c.61,1.1.43,2.01,2.19,3.17,1.75,1.16,4.33.82,5.52,2.11,1.19,1.29.37,2.8,1.38,2.75.3-.34.82-.38,1.16-.08,0,0,.02.01.02.02,1.02-.05.05-1.47,1.11-2.88,1.06-1.41,3.67-1.3,5.3-2.62,1.63-1.32,1.36-2.21,1.87-3.37s-1.11-1.87-1.52-1.06-1.4,1.43-3.08,1.64-1.75-.93-1.48-2.3c.27-1.37,1.84-1.78,2.85-1.94,1.01-.16,1.77,1.5,2.79,1.56,1.02.06,1.78-.65,1.44-2.89-1.39-9.36-20.5-8.44-21.01,1.02v-.02Z"/>
      <path class="cls-7" d="M140.92,83.11c.3-.07.49-.37.42-.68-.07-.3-.37-.49-.68-.42-.28.07-.47.34-.43.63.06.32.37.53.69.48Z"/>
      <path class="cls-7" d="M179.34,82.47c.3-.08.49-.38.41-.69-.08-.3-.38-.49-.69-.41-.28.07-.46.34-.42.62.06.32.36.53.68.48,0,0,0,0,.01,0Z"/>
    </g>
    <g>
      <path class="cls-9" d="M228.96,24.04c.02.17-3.58,5.63-3.58,5.63"/>
      <polyline class="cls-9" points="234.35 117.22 234.59 117.13 232.03 117.13"/>
      <polyline class="cls-9" points="228.9 40.9 233.42 37.62 233.4 37.63"/>
      <line class="cls-9" x1="228.89" y1="52.36" x2="226.15" y2="52.12"/>
      <polyline class="cls-9" points="228.19 29.56 229.7 25.86 229.69 25.86"/>
      <line class="cls-9" x1="228.87" y1="31.46" x2="231.74" y2="27.05"/>
      <polyline class="cls-9" points="229.56 38.83 234.79 33 234.79 33"/>
      <polyline class="cls-9" points="228.63 66.02 228.65 66.02 225.6 65.37"/>
      <polyline class="cls-9" points="232.1 121.53 232.38 121.47 231.42 121.39"/>
      <polyline class="cls-9" points="234.52 119.45 234.64 119.41 232.15 118.7"/>
      <polyline class="cls-9" points="230.75 47.59 230.75 47.59 227.4 47.65"/>
      <polyline class="cls-9" points="235.19 116.11 235.26 116.09 233.74 115.26"/>
      <polyline class="cls-9" points="231.96 104.07 231.98 104.09 229.09 104.22"/>
      <path class="cls-9" d="M101.87,68.72l-1.33-1.39c.58-.05,2.85-.28,2.85-.28l-3.9-2.02,2.09.52-4.1-4.4,3.04,1.64-4.73-6.07,4.14,2.79-2.79-3.64,2.22.5-5.2-2.64,6.63-.65-6.21-1.84h3.89l-5.89-3.76,3.44,1.54-2.62-2.46,4.04,1.84-2.07-1.33,5.66,1.11-4.86-2.16,6.76,2.35-6.82-4.7,3.96.52-3.91-3.08,3.28.61-3.12-3.2,1.71.71-2.51-6.5,1.64.98-1.79-4.18,2.9,3.49-1.86-5.66,3.65,5.01-2.27-4.8,2.66,2.72-1.49-3.02,4.71,2.98-2.38-6.56,4.26,2.63-3.45-4.65,2.74,1.37-1.16-2.76,2.06,1.33-.28-3.98,1.46,1.81-.61-4.35,1.69,1.52-.64-3.67,1.78,1.52-1.6-4.75,3.1,1.05-1.44-2.1,1.37.21-1.57-3.54,3.5,1.25-1.8-2.3,3.91,3.08-2.62-3.39,8.08,6.94-.91-2.7,2.82,3.84-1-3.35,4.84,7.79-.17-4.1,3.11,7,1.3-2.33-.43,5.7,1.02-1.35.06,6.09,1.45-2.08.82,3.28.61-3.28,1.31,3.45-2.29-8.56,3.35,3.84-2.3-5.05,3.01,4.29-.72-4.21,2.34,3.28-1.64-4.33,2.53,3.03-.82-5.12,2.89,5.38.82-5.74.27,6.78,1.15-4.32,2.97,3.23-.18-4.27,2.29,4.92-.21-3.46,1.98,3.25-.21-7.38,2.03,7.91.08-5.26,2.68,4.87.57-5.45,1.29,6.93v-5.64l2.25,6.56-1.17-6.3,2.71,7.95-.59-6.22,1.76,7.87.41-6.77,2.71,5-1.25-5.2,2.59,4.21.6-2.46,1.15,3.47,2.03-2.84.61,1.85,1.18-3.12,1.07,1.87v-4.16l3.43,2.46.87-4.29,1.92,3.23-.13-2.94,2.2,3.33-.08-2.54.97,2.15,1.1-3.9,1.27,6.27,1.02-4.3,1.47,2.86,1.38-3.68.71,2.66,1.69-3.28.22,1.58,1.87-2.01-.82,3.61,2.39-5.03-.17,4.32,2.31-4.62-.04,1.64,4.53-5.06-.14,1.9,2.99-3.63-1.37,2.74,8.28-5.96-2.46,3.28,5.93-4.58-.69,1.84,4.72-3.3-.98,3.56,2.37-2.17s.01-.01.02-.02l.29-.2-1.91,3.61"/>
      <path class="cls-9" d="M101.87,68.72h-2.03c.82.04,5.68,2.83,5.68,2.83l-5.3-.48,4.75,1.35-4.27.19,2.62,1.39-2.46.48,2.71,1.11-3.71.38,8.21.55-12.3,1.7,4.88,1.89-4.68,1.42,4.39.16-4.43,1.38,8.83.82-9.27,4.1,3.39.27-3.43,1.95,4.42-1.08-4.18,3.28,5.7-2.46-4.1,3.66,4.92-1.55-7.51,4.92,5.81-1.21-5.29,3.01h3.08l-2.74,1.53,1.64.52-3.11,1.3,2.46,1.27-3.19,1.64,2.09.11-4,1.64,3.71-.31-2.7,1.85,4.92-.41-4.39,1.28,4.67-.24-3.3,1.38,3.57-.35-3.39,1.64,5.55-.63-7.74,2.28,6.25-.46-4.67,2.12,4.85-.82-3.6,1.76,3.95-.55-4.77,2.8,4.71-.92-3.49,1.96,3.5-.89-3.71,2.26,6.8-.4-7.59,2.39,5.26.21-3.94,1.64,7.46-.36-6.14,2.19,3.24.09-3.48,1.02h5.1l-2.97,1.89,5.51.98-5.67.82,5.92,1.07-6.26.33,3.13,1.31-6.19.86,6.15.76-6.04.97,9.84.71-.82.3-6.22.75,4,.82-7.47.36,4.66,1.64h-2l-1.39-.14.61.14h-4.07l7.1,1.84-8.09.71,6.76,1.35-5.92-.12,6.72,1.08-6.56.37,3.98,1.23-2.04.41,3.89.21-.66.08-6.17-.45,2.69.88-2.14.26,4.67.7-5.51.89,1.74.24-.23.07,2.46.93-4.41-.43,5.74,1.53-6.32.23,2.3,2.51-2.3-1.33,2.04,2.66-3.22-.71"/>
      <path class="cls-9" d="M101.87,68.72c-.13.02-.09.02.06,0-.02,0-.04,0-.06,0"/>
      <polyline class="cls-9" points="233.4 112.71 234.1 112.81 234.08 112.8"/>
      <polyline class="cls-9" points="231.67 106.99 234.99 108.38 234.9 108.31"/>
      <line class="cls-9" x1="232.8" y1="55.25" x2="225.9" y2="55.8"/>
      <line class="cls-9" x1="217.95" y1="9.06" x2="220.11" y2="7.29"/>
      <polyline class="cls-9" points="234.52 119.45 234.71 119.5 233.41 119.9 235.05 121.44 231.33 121.25 231.42 121.39"/>
      <polyline class="cls-9" points="234.79 33 234.79 33 229.27 36.39 233.12 29.28 229.71 33.78 231.86 28.91 228.87 31.46"/>
      <polyline class="cls-9" points="234.9 108.31 235.02 108.36 229.09 104.22"/>
      <polyline class="cls-9" points="228.9 40.9 232.69 40.08 229.82 42.62 233.71 41.69 227.4 47.65"/>
      <polyline class="cls-9" points="233.4 37.63 233.41 37.62 229.56 38.83"/>
      <path class="cls-9" d="M232.1,121.53l.33.03-.78.18,2.15,3.23-3.14-1.09,4.92,4.92s-3.12-1.49-3.91-1.53c-.8-.04,5.66,4.02,5.66,4.02l-5.85-2.82,1.77,1.82-2.39-.12,1.64,1.64-2.9-.42,5.07,5.19-4.39-2.89,3.28,3.76-3.47-2.46,4.76,4.64-4.53-2.62,2.62,3.6h-.07l.34.25h-.12l2.64,3.28-3.51.7,3.94,2.01-3.48,1.5.82.47-2.13.1-.45.19,2.39,1.73-1.48.2,3.28,3.09-3.72-.18,2.46,3.72-3.15-1.09"/>
      <polyline class="cls-9" points="235.19 116.11 235.33 116.19 232.03 117.13"/>
      <polyline class="cls-9" points="233.74 115.26 236.22 114.19 233.4 112.71"/>
      <polyline class="cls-9" points="234.08 112.8 234.19 112.81 233.27 111.94 235.73 111.45 235.86 111.5 235.78 111.44 233.14 108.2 233.26 108.2 231.67 106.99"/>
      <polyline class="cls-9" points="232.15 118.7 231.75 118.34 233.23 118.15 232.89 117.89 234.66 117.22 234.35 117.22"/>
      <path class="cls-9" d="M228.63,66.02h.01s-4.65,2.26-4.65,2.26l4.98.11-5.1.98,5.1,2.92-3.84.39,4.1,1.45-3.2,1.12,2.5.6-4.92,1.34,2.89.54-3.67.64,5.21.76-2.88.53,4.8,3.64-3.87-.82,5.31,2.46-4.1.7,4.49.45-4.22,1.53,2.53.86-2.73.65,2.75,1.37-1.42.46,3.83,2.46-3.69.51,3.12,3.2-3.28-.48,5.74,3.9s-3.31-.89-4.1-.78,6.31,2.89,6.31,2.89l-6.27-1.69,2.08,1.46-2.37.33,1.92,1.31h-.04"/>
      <path class="cls-9" d="M232.8,55.25s-4.35,2.51-5.17,2.46c-.81-.05,2.1,1.59,2.1,1.59l-3.05.29,3.58,1.64-2.96,1.89,3.32.75-5.03,1.5"/>
      <polyline class="cls-9" points="228.89 52.36 229.13 52.38 226.81 53.1 230.1 54.16 225.9 55.8"/>
      <polyline class="cls-9" points="230.75 47.59 230.75 47.59 227.18 49.96 231.28 49.53 226.15 52.12"/>
      <path class="cls-9" d="M220.11,7.29l-.76,2.25,5.21-5.98-4.36,8.26,2.58-1.7-.57,2.63,1.98-1.21-1.54,3.44,1.9.14-.2,2.46,1.44-1.14-2.17,6.62,2.7-2.8-1.15,4.33,1.89-2.26-2.39,5.03s1.16-.84,2.28-1.69c.87-.66,1.71-1.32,1.97-1.59.04-.04.05-.05.05-.04"/>
      <line class="cls-9" x1="231.74" y1="27.05" x2="228.19" y2="29.56"/>
      <polyline class="cls-9" points="225.38 29.67 229.7 25.85 229.69 25.86"/>
      <path class="cls-9" d="M228.96,24.04c.02.18-3.58,5.63-3.58,5.63h0"/>
      <polyline class="cls-9" points="234.35 117.22 232.02 117.22 231.94 117.16 232.03 117.13"/>
      <line class="cls-9" x1="228.9" y1="40.9" x2="233.4" y2="37.63"/>
      <polyline class="cls-9" points="226.15 52.12 226.14 52.13 228.89 52.36"/>
      <line class="cls-9" x1="228.19" y1="29.56" x2="229.69" y2="25.86"/>
      <polyline class="cls-9" points="228.87 31.46 228.85 31.47 231.74 27.05"/>
      <line class="cls-9" x1="229.56" y1="38.83" x2="234.79" y2="33"/>
      <line class="cls-9" x1="228.63" y1="66.02" x2="225.6" y2="65.37"/>
      <polyline class="cls-9" points="232.1 121.53 231.48 121.48 231.42 121.39"/>
      <polyline class="cls-9" points="234.52 119.45 232.25 118.8 232.15 118.7"/>
      <polyline class="cls-9" points="227.4 47.65 227.4 47.65 230.75 47.59"/>
      <polyline class="cls-9" points="233.74 115.26 233.69 115.28 235.19 116.11"/>
      <polyline class="cls-9" points="231.96 104.07 229.07 104.21 229.09 104.22"/>
      <polyline class="cls-9" points="234.08 112.8 233.37 112.7 233.4 112.71"/>
      <polyline class="cls-9" points="234.9 108.31 231.58 106.92 231.67 106.99"/>
      <polyline class="cls-9" points="225.9 55.8 225.9 55.8 232.8 55.25"/>
      <polyline class="cls-9" points="217.95 9.06 217.94 9.07 220.11 7.29"/>
    </g>
  </g>
  <path class="cls-8" d="M268.96,190.23l-.04-.17c-.02-.42-.09-.83-.21-1.23-.12-.54-.17-1.1-.17-1.69v-20.2c0-1.31-.03-2.51-.08-3.58-.04-1.5-.34-2.98-.9-4.38-.8-2.02-2.1-3.83-3.8-5.28-1.57-1.3-3.35-2.3-5.27-2.97-2-.7-4.08-1.16-6.15-1.36-1.71-.18-3.46-.27-5.17-.27-.47,0-.94,0-1.41.02l-1.19.03c-.37,0-.74.03-1.1.09l-.14.02-.14.03c-.46.11-.93.18-1.38.22-.88.06-1.76.21-2.62.42l-.15.04c-1.08.32-2.16.66-3.18,1.01-1.26.43-2.47,1.02-3.6,1.74-.34.21-.65.41-.92.61l-1.06.82-.12.13-.04.02-.14.12c-.84.69-1.59,1.49-2.23,2.38l-.1.13-.58.95-.43.74c-.4.65-.74,1.34-.99,2.04-.25.68-.45,1.32-.6,1.91-.08.29-.15.59-.21.93-.16.76-.17,1.55-.02,2.31.28,1.63,1.3,3.01,2.75,3.76.5.31,1.05.51,1.63.61l.31.14h.56c-.26.15-.52.31-.77.48l-.16.11c-1.71,1.23-3.16,2.86-4.2,4.75-.42.78-.74,1.62-.96,2.46-.15.58-.3,1.14-.45,1.69l-.13.48v.5c-.01.19-.03.39-.07.57l-.03.13-.02.13c-.09.63-.1,1.26-.03,1.89.02.43.07.86.15,1.28-.04.69.05,1.37.26,2.03.1.48.23.93.39,1.44.17.53.35,1.01.54,1.46.77,1.94,2,3.7,3.57,5.08l.08.07c1.45,1.21,3.07,2.16,4.83,2.82.7.32,1.44.55,2.23.69.36.06.73.12,1.13.21.57.16,1.16.24,1.75.24.09,0,.19,0,.27,0l.37.11h.95c.37.05.74.08,1.11.08s.74-.03,1.11-.08h.51c.24,0,.48-.02.72-.04l.34.03.65-.1c.1-.02.21-.04.23-.04h.29c.61-.05,1.22-.16,1.81-.33l2.14-.56c.96-.24,1.9-.57,2.8-.98l1.06-.53c.27.24.56.46.88.65.89.59,1.9.93,2.97.97.57.05,1.1.05,1.57.05h5.47c.82,0,1.65-.16,2.41-.47,2.17-.74,3.58-2.83,3.42-5.15-.03-.74-.12-1.48-.26-2.21ZM248.49,181.23v.35c-.06.19-.09.38-.1.57-.01.18-.04.36-.09.54-.17.59-.46,1.14-.85,1.61-.4.46-.93.78-1.52.94-.41.13-.84.21-1.27.24-.43.04-.87.02-1.3-.06-.39-.07-.77-.18-1.13-.35-.32-.13-.59-.36-.79-.65-.23-.3-.36-.66-.39-1.04-.13-.64.01-1.31.39-1.85.35-.44.8-.78,1.31-1,.17-.07.34-.13.52-.17.17-.04.36-.08.55-.13.3-.1.61-.16.92-.18.32-.02.65-.07.96-.15.11,0,.23,0,.33-.04.19-.05.39-.09.59-.11.19-.02.37-.06.55-.11.1-.02.18-.04.26-.06.07-.01.16-.03.26-.06.2-.01.39.04.55.15.1.07.15.18.15.3,0,.13.03.27.07.39.05.28.05.57,0,.85ZM249.61,165.66c-.07.04-.15.07-.23.09-.93.19-1.96.42-3.09.68l-.12.03c-.05.01-.1.02-.14.02-.69,0-1.38.09-2.05.27-.13,0-.25,0-.38,0-.22,0-.45,0-.67.03.15-.38.33-.78.54-1.21l.06-.11.06-.16c.05-.07.12-.13.17-.17.14-.11.28-.21.47-.33.32-.1.65-.18,1.07-.24.46-.08.93-.13,1.42-.14.11,0,.22,0,.32,0,.33,0,.66.02,1.07.07.28.03.56.09.92.2.25.07.46.25.57.48.01.08.02.17.04.25-.02.09-.03.17-.04.26Z"/>
  <path class="cls-8" d="M213.84,173.27l-.07-.91s-.08-.49-.09-.57v-1.15l-.09-.42c-.12-.57-.22-1.15-.29-1.66-.1-.91-.29-1.81-.57-2.68-.1-.38-.21-.74-.32-1.09l-.07-.21c-.09-.29-.18-.57-.27-.82-.26-.77-.58-1.52-.97-2.25-.15-.54-.38-1.04-.7-1.49l-.12-.2c-.21-.36-.42-.72-.64-1.07-.38-.61-.77-1.17-1.25-1.79-.25-.31-.5-.6-.74-.88-.26-.3-.56-.61-.84-.88-3.74-3.78-8.93-5.95-14.25-5.95-.52,0-1.04.02-1.56.06l-.39.03c-.07,0-.14,0-.21,0-.42,0-.83.05-1.23.15-.31.06-.62.11-.9.14-.76.07-1.5.24-2.22.49-1.04.31-2.06.72-3.05,1.24-.37.2-.74.41-1.11.64-.18-.17-.38-.33-.59-.48-.99-.73-2.21-1.14-3.44-1.14h-6.44c-.75,0-1.49.13-2.19.38-1.26.43-2.33,1.33-2.98,2.5-.64,1.09-.94,2.37-.86,3.63v1.66h-.01v45.33c0,1.12.03,2.1.08,2.96.2,2.65,2.17,4.77,4.8,5.16l.29.04h.45c.31.05.63.08.96.08h2.65c.11,0,.22,0,.35.01.29.01.61.03.96.03h1.77c.67-.04,1.35-.14,2-.28,1.15-.24,2.21-.86,2.99-1.74l.25-.29.19-.33c.64-1.1.98-2.35.98-3.61v-2.4h.09v-6.06c.52.24,1.07.43,1.63.58l.78.23c.47.14.97.28,1.39.41.65.22,1.33.33,2.02.33.07,0,.14,0,.21,0l.34.11h.99c.33.05.66.08.99.08s.66-.03.99-.08h.81s.53-.15.53-.15c.64,0,1.28-.09,1.9-.27l1.41-.27c.94-.17,1.84-.48,2.61-.88l1.47-.72c.72-.34,1.41-.76,2.07-1.26.24-.18.48-.37.78-.59.41-.31.81-.65,1.18-1l.55-.55c.51-.47.93-.95,1.27-1.34l.11-.13c.45-.53.88-1.08,1.31-1.73.53-.84,1.02-1.72,1.49-2.67.38-.81.75-1.66,1.13-2.56.31-.71.55-1.45.69-2.15,0,0,.21-.97.29-1.31.22-.76.35-1.54.38-2.32.01-.26.06-.51.13-.76l.15-.53v-1.07c.12-.61.18-1.22.16-1.84,0-.59-.03-1.18-.1-1.77ZM194.05,175.75h-.05v.94c-.09.44-.17.86-.23,1.26-.06.4-.17.79-.33,1.17-.29.71-.68,1.37-1.17,1.96-.49.58-1.12,1.03-1.82,1.31-.25.09-.51.16-.77.21-.27.05-.52.1-.77.16-.2.02-.4.02-.61,0-.19,0-.38-.03-.56-.07-.11-.03-.22-.04-.33-.02-.11.02-.22,0-.33-.02-.54-.13-1.06-.34-1.54-.61-.65-.38-1.22-.9-1.66-1.52-.43-.69-.77-1.43-.99-2.22-.06-.18-.11-.37-.14-.56-.03-.19-.06-.38-.09-.56-.03-.16-.05-.33-.05-.5-.06-.12-.09-.24-.09-.37v-.99c-.06-.16-.06-.34,0-.5.03-.16.03-.33,0-.5-.03-.15-.02-.31.04-.45,0-.2,0-.41.04-.61.07-.25.11-.51.14-.77.03-.26.07-.52.14-.77.26-.84.63-1.64,1.1-2.38.45-.71,1.11-1.27,1.89-1.59.19-.09.38-.16.59-.21.2-.04.41-.1.63-.16.11-.03.22-.04.33-.04.11,0,.22-.02.33-.05h.86c.28,0,.55.03.82.09.94.2,1.81.66,2.52,1.31.65.68,1.14,1.49,1.45,2.38.13.26.22.54.28.82.06.29.12.6.19.91.06.21.09.43.09.65,0,.21.03.41.09.61v.42c.07.42.07.85,0,1.26Z"/>
  <path class="cls-8" d="M90.76,171.65c.04-.6-.02-1.19-.18-1.77-.02-.43-.08-.86-.17-1.25l-.3-1.33c-.14-.64-.32-1.28-.53-1.83-.24-.67-.45-1.31-.65-1.92-.29-.95-.71-1.86-1.25-2.74l-1.06-1.67c-.41-.63-.85-1.24-1.32-1.82-.62-.83-1.34-1.58-2.1-2.21-.63-.53-1.29-1.04-2.03-1.57-2.14-1.48-4.48-2.59-7.01-3.33-2.56-.73-5.21-1.1-7.87-1.1-.38,0-.75,0-1.13.02h-.19s-.19.03-.19.03c-.18.02-.36.04-.55.04-.57,0-1.14.04-1.7.12l-.25.03-.24.07c-.57.16-1.16.28-1.77.36-1,.14-1.98.4-2.93.76l-.11.04-.11.05c-.55.25-1,.43-1.4.58-.69.25-1.38.54-2.05.86l-.2.1-.18.12c-2.02,1.27-3.88,2.81-5.51,4.57l-.09.1c-1.65,1.9-2.99,4.05-3.96,6.39-.33.81-.6,1.64-.81,2.49-.12.52-.27,1.05-.43,1.59-.22.59-.34,1.21-.37,1.91-.18.64-.24,1.3-.19,1.91l-.04.22v.44c-.11.53-.18,1.07-.19,1.62-.04.66,0,1.31.12,1.95v.28c0,.49.06.98.15,1.46l.03.15c.03.11.04.22.04.29,0,.77.09,1.54.28,2.28l.05.2c.05.49.15.97.32,1.44.13.49.25.95.35,1.36.19.79.49,1.55.87,2.27.97,2.22,2.28,4.26,3.91,6.1,1.62,1.79,3.49,3.32,5.65,4.59.68.38,1.41.72,2.13,1,.56.22,1.15.43,1.78.64.69.29,1.4.5,2.08.63.42.09.84.19,1.26.31l.18.05c.41.1.83.16,1.27.18.5.14,1.01.21,1.53.21.13,0,.27,0,.39-.01l.23.04h.72c.46.09.94.13,1.41.13.19,0,.37,0,.56-.02.47-.02.93-.06,1.39-.12.14,0,.27-.02.41-.03l.5.04.55-.12c.65,0,1.3-.1,1.91-.3h.05c.53-.13,1.06-.25,1.62-.35.89-.18,1.77-.45,2.59-.79,2.72-1.1,5.22-2.63,7.51-4.61,2.23-2.02,4.03-4.55,5.2-7.32.36-.74.64-1.51.84-2.28.13-.48.27-.95.43-1.39l.15-.4.06-.42c.03-.21.06-.42.09-.61l.04-.26c.03-.2.08-.4.15-.66.22-.83.3-1.7.24-2.49l.13-.5v-.89c.22-1.28.19-2.62-.1-3.9ZM71.21,175.86c-.03.15-.04.3-.05.45v.46c-.03.12-.05.24-.05.36,0,.12-.02.24-.05.36-.1.36-.18.7-.24,1.02-.07.33-.17.65-.29.96-.31.75-.75,1.43-1.29,2.03-.57.58-1.27,1.02-2.03,1.29-.23.1-.47.16-.72.19-.26.03-.51.08-.77.15h-.38c-.13.03-.27.03-.41,0-.14-.01-.27-.04-.41-.07-.11-.02-.22-.02-.34,0-.11.01-.23,0-.34-.03-.28-.06-.56-.14-.84-.24-.26-.09-.51-.22-.74-.39-.7-.39-1.3-.94-1.74-1.6-.43-.73-.77-1.51-1.02-2.32-.06-.23-.11-.5-.14-.74-.03-.25-.08-.49-.14-.74v-.43c-.08-.33-.12-.67-.12-1.02-.03-.34,0-.68.07-1.02v-.48c0-.16.02-.32.05-.48.06-.36.12-.71.17-1.05.04-.34.11-.68.21-1.02.26-.82.66-1.58,1.17-2.27.5-.67,1.17-1.19,1.94-1.52.17-.1.36-.17.55-.21l.65-.17c.11-.03.23-.03.34,0,.12.02.24,0,.34-.07h.86c.27-.02.55,0,.82.07.22.07.43.12.62.17.19.05.38.11.57.17.74.31,1.4.8,1.91,1.41.51.65.93,1.37,1.25,2.13.1.26.17.52.21.79.05.27.11.54.17.79.04.09.06.19.05.28.03.17.05.34.05.51,0,.17.03.35.1.51v.39c.04.23.05.46.05.69,0,.23-.01.47-.05.7h.01Z"/>
  <path class="cls-8" d="M48.44,173.45v-.66s-.02-.39-.02-.39c0,0-.1-.52-.11-.61v-1.14l-.09-.42c-.12-.57-.22-1.15-.29-1.67-.1-.91-.29-1.82-.57-2.69l-.07-.24c-.08-.28-.16-.56-.25-.83l-.08-.25c-.09-.28-.17-.54-.25-.76-.26-.79-.59-1.55-.98-2.27-.14-.53-.38-1.02-.69-1.47-.24-.42-.49-.84-.75-1.26-.37-.6-.78-1.19-1.26-1.81-.25-.31-.5-.6-.74-.88-.26-.3-.56-.61-.87-.91-1.88-1.85-4.06-3.31-6.56-4.38-2.5-1.01-5.14-1.53-7.84-1.53-.45,0-.91.01-1.36.04l-.5.03c-.05,0-.1,0-.15,0-.42,0-.83.05-1.24.15-.3.06-.61.11-.91.14-.75.07-1.48.24-2.19.48-1.04.31-2.06.72-3.05,1.25-.37.2-.73.41-1.1.63-.18-.17-.38-.33-.59-.48-.99-.73-2.21-1.14-3.44-1.14h-6.42c-.75,0-1.48.12-2.19.37-1.27.43-2.35,1.32-3,2.49-.65,1.1-.96,2.38-.88,3.65v46.99c0,1.11.03,2.09.08,2.96.2,2.65,2.17,4.77,4.8,5.16l.29.04h.45c.31.05.63.08.96.08h2.65c.11,0,.22,0,.35.01.29.01.61.03.96.03h1.77c.67-.04,1.35-.14,2.01-.28,1.15-.24,2.21-.86,2.99-1.74l.25-.29.19-.33c.64-1.1.98-2.35.98-3.61v-8.53c.54.24,1.09.45,1.67.6l.8.24c.45.13.93.27,1.41.42.64.21,1.3.31,1.97.31.07,0,.14,0,.2,0l.34.11h.99c.33.05.66.08.99.08s.66-.03.99-.08h.81s.53-.15.53-.15c.64,0,1.28-.09,1.9-.26l1.43-.27c.94-.17,1.84-.48,2.62-.89.49-.24.96-.47,1.48-.71.71-.34,1.38-.75,2.01-1.22l.78-.58c.45-.33.88-.69,1.29-1.1l.49-.49c.52-.49.97-1,1.32-1.42.45-.51.88-1.04,1.26-1.59l.09-.13c.54-.84,1.04-1.73,1.5-2.69.38-.83.76-1.69,1.11-2.52.31-.71.55-1.45.73-2.25.06-.29.26-1.24.26-1.24.22-.76.35-1.54.38-2.29.02-.27.06-.55.14-.82l.14-.52v-1.06c.13-.61.18-1.23.16-1.85,0-.53-.02-1.06-.08-1.58ZM28.73,175.76h-.04c0,.16-.03.32-.03.48v.47c-.1.44-.17.87-.24,1.28-.06.41-.17.81-.33,1.19-.29.72-.69,1.39-1.18,1.99-.5.59-1.13,1.04-1.85,1.33-.25.1-.51.17-.78.21-.28.05-.53.11-.79.17-.2.03-.41.03-.61,0-.19,0-.38-.03-.57-.07-.11-.03-.22-.04-.33-.03-.11.02-.22,0-.33-.03-.55-.14-1.07-.34-1.56-.61-.67-.39-1.24-.91-1.69-1.54-.44-.7-.78-1.46-1.01-2.25-.06-.19-.11-.38-.14-.57-.03-.19-.07-.38-.1-.57-.03-.17-.05-.33-.05-.5-.06-.12-.1-.25-.1-.38v-1.01c-.06-.16-.06-.34,0-.5.03-.17.03-.34,0-.5-.03-.15-.02-.31.05-.45,0-.21.01-.41.05-.61.06-.26.11-.52.14-.79.03-.26.08-.52.14-.78.27-.85.64-1.66,1.11-2.42.46-.73,1.13-1.29,1.93-1.62.19-.09.39-.16.59-.21.21-.05.42-.1.64-.17.11-.03.22-.04.33-.05.11,0,.22-.02.33-.05h.88c.28,0,.56.03.83.1.96.21,1.84.67,2.56,1.33.66.69,1.16,1.52,1.47,2.42.13.26.23.54.28.83.07.3.13.61.19.92.06.22.09.44.1.67,0,.21.03.42.1.62v.42c.06.43.06.86,0,1.29Z"/>
  <path class="cls-8" d="M137.64,213.78c-4.38,0-6.46-.67-8.21-1.35l-.2-.08c-3.33-1.27-3.88-5.37-4-8.34v-1.5c-.04-1.59.57-3.06,1.66-4.21-.07,0-.13,0-.2,0-.22,0-.44-.01-.65-.03h-1.08c-.2.02-.41.03-.62.03s-.41-.01-.62-.03h-.97l-.41-.09s-.04,0-.05,0c-.49,0-.99-.05-1.47-.13l-.91-.14-1.16-.2-.19-.05c-.69-.19-1.38-.42-2.05-.68-.67-.27-1.31-.57-1.92-.91l-.16-.09-.15-.11c-.28-.19-.55-.39-.8-.61-.06-.05-.14-.11-.22-.17-.67,1.24-1.77,2.22-3.15,2.72-.54.22-1.1.34-1.68.38l-.26.12h-1.81c-.13,0-.26-.02-.38-.03-.29.04-.58.06-.88.06-.22,0-.43-.01-.65-.03h-1.09c-.2.02-.41.03-.61.03s-.41-.01-.61-.03h-.97s-.4-.08-.41-.08c-.53,0-1.04-.05-1.54-.14l-.91-.14-1.17-.2-.19-.05c-.7-.19-1.4-.42-2.07-.69-.66-.26-1.31-.56-1.92-.9l-.16-.09-.15-.1c-.27-.18-.53-.38-.79-.59l-.09-.08c-.08-.07-.19-.15-.3-.24l-.11-.08-.49-.43-.73-.65-.25-.34c-.94-1.28-1.66-2.68-2.15-4.19-.29-.69-.42-1.44-.38-2.18-.01-.06-.02-.11-.03-.17l-.13-.3v-1.22c-.04-.43-.04-.87.01-1.3,0-.05-.01-.28-.01-.28v-18.31h-.04c-.97,0-1.93-.17-2.85-.49-1.44-.48-2.63-1.59-3.2-3l-.05-.13-.04-.13c-.16-.51-.3-1.04-.41-1.57l-.08-.4v-2.05c-.02-.91.05-1.9.21-2.87.36-2.05,1.79-3.61,3.88-4.29.59-.24,1.23-.36,1.87-.36.21,0,.41.01.62.04,0,0,.01,0,.02,0v-5.68c-.02-.8.1-1.6.33-2.37l.08-.25.11-.23c.7-1.55,2.03-2.71,3.66-3.2.41-.12.8-.18,1.19-.19h.03s5.94-.01,5.94-.01c.9,0,1.71.05,2.51.14,1.9.2,3.61,1.43,4.43,3.21l.05.12.05.12c.29.77.43,1.57.42,2.39v5.66l-.02.18v.02c.41,0,.8.02,1.19.02h.32c.23-.03.46-.05.7-.05.21,0,.43.01.64.04.01,0,.02,0,.04,0v-5.68c-.02-.8.09-1.6.33-2.37l.08-.25.11-.24c.7-1.55,2.03-2.71,3.66-3.2.38-.11.76-.18,1.15-.19h.03s5.97-.01,5.98-.01c.9,0,1.71.05,2.5.14,2.01.23,3.74,1.54,4.51,3.42l.07.18c.27.76.4,1.55.38,2.36v5.61s-.02.18-.02.18c.05-.01.1-.03.15-.04l9-6-1.98,5.89h1.89c1.09,0,2.18.27,3.14.79l.22.12.2.14c1.43,1.02,2.44,2.51,2.84,4.22.19.68.38,1.31.6,1.95.3.75.56,1.52.77,2.3.13.5.29.97.48,1.42l.05.12.17.48c.37,1.08.76,2.21,1.09,3.35.3,1.04.68,2.08,1.07,3.17l.21.63c.3-.92.59-1.82.88-2.72.68-2.13,1.37-4.28,2.1-6.46l.04-.1c.2-.56.38-1.13.54-1.76.22-.84.48-1.67.79-2.47.1-.26.19-.53.28-.78l.12-.33c.38-1.1,1.13-2.11,2.1-2.82,1-.77,2.23-1.21,3.5-1.23.23,0,.41,0,.6-.02.32-.01.66-.03,1.01-.03h4.71c.62,0,1.23.03,1.84.1,1.26.11,2.47.63,3.4,1.48l.25.23.21.27c1.15,1.47,1.44,3.4.8,5.13-.13.46-.28.93-.45,1.38-.08.24-.21.56-.33.89l-.12.33c-.73,1.84-1.42,3.65-2.06,5.46-.76,2.13-1.46,3.98-2.14,5.67-.27.7-.5,1.34-.69,1.98-.22.74-.48,1.45-.71,2.07l-.2.53c-.29.8-.54,1.47-.8,2.15-.25.65-.5,1.34-.76,2.03l-.04.1c-.99,2.5-1.95,5.06-2.83,7.61-.92,2.65-1.92,5.3-2.96,7.87-.08.18-.13.35-.18.52-.14.55-.33,1.08-.58,1.58-.16.38-.4.92-.66,1.49-.36.8-.9,2.01-1.06,2.45-.38,1.05-.83,2.02-1.23,2.85-.47,1.25-1.7,3.91-2.56,5.01-1.65,2.08-5.16,4.09-7.51,4.29-1.88.16-3.58.24-5.08.24ZM135.57,196.26c.08-.01.17-.02.25-.03.41-.36,1.04-1.25,1.17-1.69l.09-.37.09-.19c-.07-.31-.11-.63-.13-.95h0c-.27-.91-.57-1.84-.93-2.84-.18-.51-.37-1.01-.57-1.52v3.52c.03,1.51-.54,2.94-1.51,4.02l1.54.06ZM128.88,181.85c.61,0,1.23.04,1.84.11.99.11,1.92.51,2.7,1.12-.18-.48-.39-.99-.63-1.55-.31-.73-.59-1.51-.81-2.29-.14-.46-.31-.95-.51-1.43-.85-2.03-1.65-4.14-2.37-6.26-.53-1.57-1.05-2.98-1.56-4.26v11.65c0,1.1.03,2.07.1,2.88.03,0,.06,0,.09,0,.18,0,.36.01.53.03h.61ZM107.27,181.91c.51,0,1.03.03,1.54.08v-16.42h-.03c-.43,0-.85-.03-1.28-.09-.2,0-.41.01-.62.02-.3,0-.62.02-.94.02v13.48c0,1.07.03,2.03.09,2.88.03,0,.06,0,.09,0,.18,0,.36.01.53.03h.61Z"/>
  <path class="cls-8" d="M87.83,161.53c.73-.12,1.48-.04,2.16.23.56.27.96.78,1.08,1.39.1.32.14.66.11,1v19.61c.02.26.02.51,0,.77-.04.23-.04.47,0,.7v.65c.05.12.08.25.07.39,0,.13.03.26.08.39.03.22.03.44,0,.66-.03.2.01.4.11.57.36,1.18.91,2.29,1.64,3.28l.39.34.39.34c.21.16.39.3.53.43.15.13.31.24.47.35.47.26.96.49,1.47.69.54.21,1.08.39,1.64.54l.93.16,1.01.16c.27.05.54.07.82.07.28,0,.55.03.82.08h.82c.23.04.47.04.7,0h1.59c.27.04.55.04.82,0,.17-.06.36-.07.54-.04.15.02.31.04.46.04h.77c.22-.1.46-.14.7-.11.24.02.48-.02.7-.12.78-.25,1.3-.99,1.27-1.81v-4.48c.02-.42-.09-.84-.3-1.2-.23-.34-.59-.57-1-.61-.49-.06-.98-.09-1.47-.08h-.82c-.14-.04-.29-.04-.43,0-.17.02-.34.01-.5-.04-.46-.1-.91-.22-1.35-.34-.4-.11-.76-.34-1.03-.66-.57-.71-.91-1.59-.97-2.5-.07-.96-.11-2.07-.11-3.36v-13.82c.05-.27.05-.55,0-.82-.05-.27-.05-.55,0-.82.08-.42.22-.82.42-1.2.19-.34.51-.58.89-.66.13-.1.3-.14.46-.11.18.03.37.01.54-.04.19-.04.39-.04.58,0,.22.01.44.01.66,0,.84,0,1.62-.05,2.32-.05.54.11,1.09.12,1.64.05.73-.12,1.48-.04,2.16.23.56.27.96.79,1.07,1.39.11.32.15.66.11,1v19.61c0,.26-.04.52-.04.77-.03.23-.02.47.04.7v.59c.05.12.08.25.07.39,0,.13.02.27.08.39.04.22.04.44,0,.66-.02.2.02.4.11.57.35,1.18.91,2.29,1.64,3.28l.39.34c.16.13.18.19.39.34.2.16.39.3.54.43.15.13.31.24.47.35.47.26.96.49,1.46.69.54.21,1.08.39,1.64.54l.93.16,1,.16c.27.05.54.07.82.07.28,0,.55.03.82.08h.82c.23.04.47.04.7,0h1.59c.27.04.55.04.82,0,.17-.06.36-.07.54-.04.15.02.31.04.47.04h.77c.22-.1.46-.14.7-.11.24.02.47-.02.69-.12.78-.25,1.31-.99,1.28-1.81v-4.48c.02-.42-.09-.84-.3-1.2-.23-.34-.6-.57-1.01-.61-.48-.06-.97-.09-1.46-.08h-.82c-.14-.04-.29-.04-.43,0-.17.02-.34.01-.5-.04-.46-.1-.91-.22-1.35-.34-.41-.11-.77-.34-1.04-.66-.57-.72-.9-1.59-.96-2.5-.08-.96-.12-2.07-.12-3.36v-13.82c.05-.27.05-.55,0-.82-.05-.27-.05-.55,0-.82.09-.42.23-.82.43-1.2.19-.34.51-.58.89-.66.13-.1.3-.14.46-.11.18.03.37.01.54-.04.19-.04.38-.04.57,0,.22.01.44.01.66,0,.89,0,1.71-.06,2.46-.06.22.64.47,1.28.75,1.91.09.12.15.27.16.43.01.18.06.35.15.5.83,1.93,1.58,3.97,2.28,6.03.7,2.06,1.46,4.07,2.28,6.02.25.61.47,1.22.66,1.85.18.63.4,1.25.66,1.85.41.98.81,1.96,1.12,2.94.3.98.71,1.96,1.12,2.94.41.98.8,1.96,1.16,2.97.36,1.01.7,2.03,1,3.05.11.26.16.54.16.82,0,.26.05.53.16.77.1.35.1.73,0,1.08-.07.32-.18.63-.31.93-.36,1.54-2.25,4.15-3.78,4.56-.19.1-.41.15-.62.15-.21,0-.41.03-.61.08l-2.74-.11c-.37,0-.86-.04-1.24,0-.35.01-.71.07-1.04.19-.61.26-1.66.92-1.63,2.11v1.38c.09,2.09.46,4.4,1.44,4.78,1.57.6,3.72,1.61,11.72.93,1.05-.09,3.63-1.41,4.71-2.78.55-.7,1.83-3.47,2.01-4.09.41-.84.82-1.73,1.16-2.66.34-.93,1.44-3.28,1.85-4.25.15-.29.27-.6.34-.93.09-.34.21-.67.34-1,1.02-2.52,1.99-5.08,2.89-7.68.91-2.6,1.87-5.19,2.89-7.76.26-.71.52-1.42.78-2.08.25-.66.49-1.31.77-2.08.28-.77.59-1.56.82-2.35.23-.8.51-1.54.82-2.36.72-1.8,1.41-3.64,2.08-5.52.67-1.87,1.36-3.71,2.08-5.52.16-.42.31-.82.46-1.24.15-.4.28-.81.39-1.23.22-.46.16-1-.16-1.39-.3-.27-.68-.43-1.08-.46-.49-.05-.98-.08-1.47-.08h-4.71c-.57,0-1.08.04-1.54.04-.42,0-.83.16-1.16.43-.34.23-.6.57-.74.97-.13.37-.27.78-.43,1.19-.26.67-.47,1.36-.66,2.05-.18.7-.39,1.4-.66,2.12-.72,2.16-1.41,4.3-2.08,6.41-.67,2.08-1.36,4.22-2.08,6.4-.2.62-.39,1.25-.54,1.89-.15.62-.36,1.23-.61,1.81-.11.25-.21.52-.31.77-.1.27-.23.53-.39.77-.07.09-.16.16-.27.2-.1.04-.19.11-.27.19-.49.1-.98-.2-1.12-.69-.18-.52-.34-.98-.5-1.39-.21-.46-.38-.94-.5-1.43-.13-.49-.27-.97-.43-1.43l-1.64-4.87c-.41-1.13-.82-2.26-1.16-3.43s-.75-2.33-1.16-3.52c-.26-.63-.48-1.27-.66-1.93-.18-.66-.4-1.3-.66-1.94-.26-.75-.5-1.52-.74-2.39-.17-.78-.62-1.47-1.27-1.93-.4-.22-.85-.32-1.31-.31h-7.38l.02-.07c-.08.05-.17.07-.26.04-.09-.02-.19,0-.27.04-.16.03-.31.08-.46.15h-2.18c-.73.06-1.46-.21-1.97-.74-.21-.25-.34-.56-.39-.89-.05-.37-.08-.74-.08-1.12v-.82c-.04-.29-.04-.59,0-.89v-5.44c0-.32-.04-.63-.15-.93-.22-.53-.71-.9-1.28-.97-.68-.08-1.36-.12-2.04-.11h-5.17c-.13.05-.28.07-.42.04-.14-.04-.29-.04-.43,0-.51.15-.94.52-1.16,1.01-.11.37-.17.76-.16,1.16v6.1c0,.47-.04.93-.04,1.39-.02.43-.11.84-.27,1.24-.27.52-.8.86-1.39.89-.72.08-1.44.13-2.16.12-.23,0-.46-.01-.69-.04-.14-.02-.29,0-.43.04h-.71c-.87,0-1.79-.04-2.74-.04-.73.06-1.46-.21-1.97-.74-.21-.25-.34-.56-.39-.89-.05-.37-.08-.74-.07-1.12v-.82c-.04-.29-.04-.59,0-.89v-5.44c0-.32-.04-.63-.16-.93-.23-.5-.71-.84-1.25-.9-.68-.08-1.36-.12-2.05-.11h-5.17c-.14.05-.28.07-.43.04-.14-.04-.29-.04-.43,0-.51.15-.94.52-1.16,1.01-.11.37-.17.76-.16,1.16v7.49c-.02.43-.11.84-.27,1.24-.27.52-.8.86-1.39.89-.72.08-1.44.13-2.16.12-.23,0-.47-.01-.7-.04-.21-.03-.43.01-.61.11-.78.2-1.21.59-1.31,1.16-.12.74-.17,1.49-.16,2.24v1.64c.08.39.18.78.3,1.16.14.34.42.6.77.7.71.27,1.48.35,2.24.23Z"/>
  <path class="cls-8" d="M214.9,135.03c2.51.07,4.36.04,5.64,0,.48-.01,1.06.03,1.85.1,1.26.11,2.45.63,3.39,1.48l.24.22.2.25c.88,1.11,1.36,2.49,1.37,3.9,0,.26,0,.51.02.77.01.35.02.7.02,1.06v48.36c.09,1.32-.18,2.64-.79,3.82l-.15.29-.2.27c-.91,1.21-2.25,2.04-3.73,2.33-.51.12-1.02.19-1.54.19-.32,0-.64-.02-.96-.07-.12-.01-.32-.03-.53-.03h-3.7c-.64,0-1.29-.03-1.92-.1-1.2-.11-2.33-.56-3.27-1.32l-.12-.09-.11-.1c-1.16-1.08-1.8-2.59-1.78-4.17v-47.92c0-.59,0-1.3-.03-2.12-.07-1.63.1-2.76.72-3.99.32-.64.68-1.07.76-1.16,1.47-1.72,3.8-1.94,4.63-1.98Z"/>
  <path class="cls-8" d="M212.78,141.88c.04.93.04,1.72.04,2.39v47.97c-.01.45.17.89.5,1.2.33.27.73.42,1.16.46.51.05,1.03.08,1.54.08h3.71c.37,0,.75.03,1.12.07.35.05.7.03,1.04-.07.56-.08,1.06-.37,1.39-.82.29-.56.41-1.19.34-1.81v-48.52c0-.62-.04-1.22-.04-1.82,0-.52-.18-1.02-.5-1.43-.3-.27-.68-.43-1.08-.46-.49-.06-.98-.08-1.47-.08h-5.63v.03c-.12,0-.25,0-.38,0-.13.02-.26.04-.39.04-.2.1-.4.21-.58.3-.18.11-.33.27-.43.47-.3.63-.42,1.32-.34,2.01Z"/>
  <path class="cls-8" d="M289.67,149.39c.32-.06.69-.1,1.09-.1.09,0,.18,0,.27,0l.39-.03c.48-.03.95-.05,1.43-.05,2.82,0,5.56.56,8.15,1.68l.1.05c2.73,1.27,5.01,3.29,6.58,5.85.53.86.95,1.79,1.24,2.76.19.59.41,1.27.62,1.97l.04.16c.15.59.25,1.2.31,1.8.01.15.03.26.06.36l.19.68-.02.28.03.19c.12.91.18,1.85.18,2.78v24.31c.11,2.49-1.42,4.78-3.78,5.62l-.12.04c-.72.23-1.47.35-2.23.35,0,0-5.47,0-5.48,0-.76,0-1.49-.05-2.21-.16-1.46-.18-2.86-1.01-3.77-2.25l-.09-.12-.08-.13c-.61-.97-.94-2.09-.96-3.24v-18.58c0-1.72-.07-3.38-.21-4.92-.06-.81-.3-1.54-.7-2.19-.22-.28-.53-.48-.88-.57l-.15-.04c-.4-.02-.78-.08-1.15-.16h-.17c-.07.01-.14.02-.21.04-.33.08-.66.13-.99.15-.51.12-1,.32-1.44.61-.71.55-1.17,1.38-1.25,2.28v.13c-.32,2.35-.46,4.74-.44,7.11v15.7c.02.96-.18,1.92-.57,2.8-.75,1.75-2.3,3-4.18,3.34-.9.15-1.76.22-2.62.22h-4.04c-.63,0-1.28-.03-1.95-.08-1.46-.08-2.82-.69-3.85-1.74l-.27-.28-.21-.32c-.85-1.29-1.25-2.83-1.16-4.36,0-.43.01-.85.02-1.26,0-.36.02-.71.02-1.04v-31.46c0-.58,0-1.18.05-1.78.06-1.21.49-2.39,1.23-3.35.63-.83,1.51-1.45,2.51-1.75.38-.12.76-.21,1.14-.29l.38-.07h.43c.37-.05.74-.08,1.12-.08h4.1c.46,0,.98,0,1.53.05.64.04,1.27.16,1.89.35l.13.04.12.05c.78.3,1.47.78,2.02,1.38.62-.39,1.31-.78,2.09-1.14,2.15-.99,4.16-1.41,5.72-1.58Z"/>
  <path class="cls-8" d="M269.67,193.49c.33.33.77.53,1.24.54.58.05,1.15.07,1.7.07h3.86c.7.01,1.39-.04,2.08-.16.55-.1,1.02-.48,1.23-1,.17-.36.25-.76.24-1.16v-15.71c-.02-2.56.13-5.11.46-7.65.2-2.06,1.26-3.95,2.94-5.17.87-.58,1.84-.99,2.85-1.23.15-.05.3-.08.46-.08.18,0,.36-.03.54-.07.29-.06.59-.1.89-.11.32-.04.65-.04.97,0,.28.1.58.15.89.16.28,0,.56.05.82.16,1.28.33,2.4,1.1,3.16,2.16.8,1.23,1.28,2.64,1.39,4.1.15,1.62.23,3.38.23,5.29v18.51c0,.42.13.84.35,1.2.27.36.67.6,1.12.66.54.08,1.09.12,1.64.11h5.4c.37,0,.73-.04,1.08-.16.73-.26,1.19-.97,1.12-1.74v-24.43c0-.75-.05-1.5-.15-2.24-.07-.2-.1-.41-.08-.61-.1-.35-.16-.72-.19-1.08-.03-.39-.1-.78-.2-1.16-.2-.67-.41-1.33-.61-1.97-.19-.64-.47-1.25-.82-1.82-1.16-1.89-2.85-3.39-4.86-4.32-2.43-1.05-5.08-1.5-7.72-1.31l.02.02c-.2.06-.41.07-.61.04-.23-.05-.47-.05-.7,0-.57.11-1.09.18-1.58.23-.49.05-.96.16-1.43.31-1.65.59-3.21,1.42-4.63,2.46-.44.29-.83.64-1.16,1.04-.33.43-.85.65-1.39.58l-.34-.23c-.13-.13-.23-.29-.27-.47-.1-.13-.15-.3-.12-.46.04-.18.04-.36,0-.54-.09-.37-.21-.73-.35-1.08-.14-.32-.4-.57-.73-.7-.34-.1-.69-.17-1.04-.19-.38-.04-.79-.04-1.2-.04h-4.05c-.28,0-.55.02-.82.08h-.39c-.25.05-.5.11-.74.19-.2.06-.38.18-.5.35-.26.33-.41.74-.42,1.16-.04.46-.04.98-.04,1.54v31.46c0,.76-.04,1.58-.04,2.46-.07.71.11,1.42.5,2.01Z"/>
  <path class="cls-8" d="M327.72,198.3c-.22,0-.43-.01-.65-.03h-1.09c-.2.02-.41.03-.61.03s-.41-.01-.61-.03h-.97l-.41-.08h-.05c-.48,0-.96-.04-1.43-.13l-.95-.15-1.17-.2-.18-.05c-.7-.19-1.39-.42-2.07-.68-.66-.26-1.3-.57-1.92-.9l-.17-.09-.16-.11c-.27-.18-.53-.38-.78-.59-.12-.1-.26-.2-.4-.32-.29-.22-.45-.37-.6-.52-.24-.2-.43-.38-.58-.52l-.21-.21-.18-.24c-.95-1.29-1.68-2.72-2.17-4.24-.27-.67-.4-1.39-.37-2.12-.01-.07-.02-.14-.03-.21l-.12-.29v-1.04c-.06-.43-.07-.86-.04-1.3,0-.15.02-.3.03-.45v-.12s0-18.14,0-18.14h-.04c-.97,0-1.92-.17-2.84-.49-1.46-.47-2.66-1.59-3.22-3.03l-.08-.21c-.17-.52-.31-1.04-.42-1.58l-.09-.41v-2.06c-.01-.91.05-1.89.2-2.85l.02-.13c.38-2,1.78-3.51,3.86-4.18.59-.24,1.23-.36,1.87-.36.21,0,.41.01.62.04.02,0,.04,0,.06,0v-5.68c-.02-.8.1-1.6.33-2.37l.08-.25.11-.23c.38-.84.95-1.57,1.65-2.13,1.62-.84,3.02-1.17,4-1.32.92-.13,2.35-.09,5.18,0,1.46.05,2.19.11,2.51.14,2,.23,3.74,1.54,4.51,3.43l.07.18c.27.76.4,1.56.38,2.36v5.6s-.02.18-.02.18v.02c.41,0,.81.02,1.2.02h.93c.76,0,1.5.13,2.22.4l.12.04.12.05c1.88.84,3.15,2.63,3.32,4.67.09.88.14,1.76.13,2.64,0,.18,0,.39.02.6.08.89,0,1.73-.25,2.51-.67,2.4-2.81,4.09-5.31,4.17-.75.04-1.59.07-2.5.08v13.47c0,1.07.03,2.03.09,2.88.03,0,.07,0,.1,0,.18,0,.36.01.53.03h.63c.61,0,1.23.04,1.83.11,1.55.18,2.95,1.04,3.83,2.35l.11.17c.61,1.01.91,2.16.88,3.34v4.36c.05,2.49-1.52,4.75-3.85,5.6-.53.21-1.09.34-1.66.38l-.26.12h-1.82c-.13,0-.26-.02-.39-.03-.29.04-.58.06-.88.06Z"/>
  <path class="cls-8" d="M307.17,157.8v1.64c.08.39.19.78.31,1.16.13.34.42.6.77.7.71.27,1.48.35,2.24.23.73-.12,1.48-.04,2.16.23.56.27.96.79,1.07,1.39.11.32.15.66.11,1v19.61c0,.26-.04.52-.04.77-.03.23-.02.47.04.7v.58c.05.12.08.25.07.39,0,.13.02.27.08.39.04.22.04.44,0,.66-.02.2.02.4.11.57.35,1.18.91,2.29,1.64,3.28.1.1.23.21.39.34.16.13.18.19.39.34.21.16.39.3.54.43.15.13.31.24.47.35.47.26.96.49,1.46.69.54.21,1.08.39,1.64.54l.93.16,1,.16c.27.05.54.07.82.07.28,0,.55.03.82.08h.82c.23.04.47.04.7,0h1.59c.27.04.55.04.82,0,.17-.06.36-.07.54-.04.15.02.31.04.47.04h.77c.21-.1.45-.14.69-.11.24.02.48-.02.7-.12.78-.25,1.31-.99,1.28-1.81v-4.48c.02-.42-.09-.84-.3-1.2-.23-.34-.6-.57-1.01-.61-.49-.06-.98-.09-1.47-.08h-.82c-.14-.04-.29-.04-.43,0-.17.02-.34.01-.5-.04-.46-.1-.91-.22-1.35-.34-.41-.11-.77-.34-1.04-.66-.56-.72-.9-1.59-.97-2.5-.07-.96-.11-2.07-.11-3.36v-13.82c.05-.27.05-.55,0-.82-.05-.27-.05-.55,0-.82.09-.42.23-.82.43-1.2.19-.34.51-.58.89-.66.14-.1.3-.14.47-.11.18.03.37.01.54-.04.19-.04.38-.04.57,0,.22.01.44.01.66,0,1.03,0,1.96-.02,2.78-.07.78,0,1.46-.55,1.64-1.31.1-.3.14-.61.11-.93-.04-.36-.04-.72-.04-1.08,0-.75-.03-1.5-.11-2.24-.04-.61-.41-1.15-.97-1.39-.26-.1-.54-.15-.82-.15h-.93c-.88,0-1.79-.04-2.74-.04-.73.06-1.46-.21-1.97-.74-.21-.25-.34-.56-.39-.89-.06-.37-.09-.74-.08-1.12v-.82c-.04-.29-.04-.59,0-.89v-5.44c0-.32-.04-.63-.15-.93-.22-.53-.71-.9-1.28-.97-.68-.08-1.36-.12-2.04-.11h-5.17v.05c-.13.05-.28.07-.42.04-.14-.04-.29-.04-.43,0-.51.15-.94.52-1.16,1.01-.11.37-.17.76-.16,1.16v6.1c0,.47-.04.93-.04,1.39-.02.43-.11.84-.27,1.24-.27.52-.8.86-1.39.89-.72.08-1.44.13-2.16.12-.23,0-.47-.01-.7-.04-.21-.03-.43.01-.61.11-.77.21-1.21.59-1.31,1.16-.11.74-.17,1.49-.16,2.24Z"/>
  <g>
    <path class="cls-2" d="M32.4,173.44c-.11-.33-.16-.67-.16-1.01,0-.37-.06-.73-.16-1.08-.11-.51-.21-1.02-.31-1.5-.09-.47-.25-.92-.46-1.35-.51-1.47-1.32-2.81-2.39-3.94-1.17-1.08-2.61-1.83-4.17-2.16-.44-.11-.9-.16-1.35-.16h-1.43c-.18.05-.36.08-.54.08-.18,0-.36.03-.54.07-.36.11-.71.2-1.04.27-.33.08-.65.19-.96.34-1.29.53-2.39,1.45-3.13,2.63-.77,1.23-1.38,2.55-1.81,3.94-.1.42-.18.84-.23,1.27-.05.43-.13.86-.23,1.28-.06.33-.09.66-.08,1-.1.23-.13.49-.07.74.05.27.05.55,0,.82-.1.26-.1.56,0,.82v1.64c0,.21.05.43.16.61,0,.28.02.55.07.82.05.3.11.61.16.93.05.31.13.62.23.93.37,1.29.92,2.53,1.64,3.67.72,1.02,1.66,1.88,2.75,2.51.8.44,1.65.78,2.54,1,.18.05.36.07.54.04.18-.02.37,0,.54.04.31.06.62.1.93.11.33.04.67.04,1,0,.42-.1.82-.19,1.28-.27.43-.07.86-.19,1.27-.34,1.16-.47,2.2-1.21,3.01-2.16.8-.98,1.45-2.07,1.93-3.24.26-.62.44-1.27.54-1.94.11-.66.23-1.36.39-2.08v-.77c0-.25.04-.52.04-.77h.06c.1-.7.1-1.41,0-2.1v-.69Z"/>
    <path class="cls-2" d="M74.89,173.82v-.62c-.1-.26-.16-.54-.16-.82,0-.27-.02-.55-.07-.82,0-.16-.02-.31-.08-.46-.1-.41-.19-.84-.27-1.28-.07-.43-.19-.86-.34-1.27-.51-1.23-1.18-2.39-2.01-3.44-.83-1-1.89-1.78-3.08-2.28-.31-.1-.61-.19-.93-.27-.31-.08-.65-.16-1-.27-.43-.1-.88-.14-1.32-.11h-1.39c-.16.1-.35.14-.54.11-.18-.04-.36-.04-.54,0l-1.04.27c-.31.06-.61.18-.89.34-1.24.53-2.32,1.38-3.12,2.46-.83,1.11-1.47,2.35-1.89,3.67-.16.54-.27,1.08-.34,1.64-.08.55-.17,1.11-.27,1.7-.05.25-.07.51-.07.77v.77c-.12.54-.16,1.09-.11,1.64,0,.55.07,1.1.19,1.64v.7c.1.39.17.79.23,1.19.06.39.13.82.23,1.2.4,1.31.95,2.56,1.64,3.75.72,1.07,1.68,1.96,2.81,2.58.37.26.77.47,1.2.62.44.15.89.28,1.35.39.18.05.36.06.54.04.18-.04.36-.04.54,0,.21.06.43.1.66.11.22.04.44.04.66,0h.61c.41-.1.82-.18,1.24-.24.4-.04.79-.15,1.16-.3,1.24-.44,2.36-1.15,3.28-2.08.88-.97,1.58-2.08,2.08-3.28.2-.5.36-1.02.47-1.54.1-.52.23-1.06.39-1.64.05-.19.07-.39.07-.58,0-.19.03-.39.08-.57v-.74c0-.25.03-.49.07-.73h-.02c.06-.37.08-.75.07-1.12,0-.37-.02-.75-.07-1.12Z"/>
    <path class="cls-1" d="M85.66,173.14c-.1-.26-.13-.54-.08-.82.05-.27.03-.56-.07-.82-.06-.2-.08-.41-.08-.62,0-.21-.03-.41-.07-.61-.11-.47-.2-.93-.31-1.39-.1-.45-.22-.89-.39-1.32-.25-.71-.48-1.4-.7-2.04-.19-.64-.47-1.25-.82-1.81l-1.04-1.64c-.35-.53-.72-1.05-1.12-1.54-.43-.59-.93-1.12-1.5-1.58-.59-.49-1.17-.94-1.74-1.35-1.78-1.23-3.75-2.17-5.83-2.78-2.52-.72-5.13-1.03-7.75-.93-.36.05-.72.07-1.08.07-.39,0-.77.03-1.16.08-.74.2-1.48.35-2.24.46-.71.1-1.41.29-2.08.54-.57.25-1.13.49-1.7.7-.56.2-1.11.43-1.64.69-1.73,1.09-3.31,2.4-4.71,3.9-1.37,1.58-2.48,3.36-3.28,5.29-.25.61-.46,1.25-.61,1.89-.15.64-.33,1.3-.54,1.97-.1.23-.15.48-.16.73,0,.25-.03.49-.07.74-.11.26-.15.54-.11.82.03.27.01.55-.04.82v.54c-.13.43-.19.87-.2,1.32-.04.44,0,.89.12,1.31v.69c0,.23.03.47.07.7.1.42.15.84.16,1.27,0,.43.05.86.16,1.28.09.22.14.46.15.7,0,.24.06.47.16.69.16.58.3,1.12.43,1.64.13.51.32,1.01.58,1.47.81,1.89,1.91,3.64,3.28,5.17,1.34,1.49,2.91,2.76,4.63,3.78.53.3,1.08.55,1.64.77.54.21,1.12.42,1.74.62.47.21.96.36,1.46.46.52.11,1.03.24,1.55.39.22.05.43.08.66.08.19,0,.39.03.57.07.26.1.54.14.82.11.27-.02.55-.01.82.04h.77c.43.12.87.15,1.31.11.41-.01.83-.05,1.24-.11.17,0,.33-.02.5-.04.17-.01.33-.01.5,0,.27-.06.54-.08.82-.08.28,0,.56-.05.82-.16.67-.15,1.33-.3,1.97-.42.65-.13,1.28-.33,1.89-.58,2.3-.93,4.44-2.24,6.32-3.86,1.84-1.67,3.29-3.72,4.25-6.02.26-.52.47-1.07.61-1.64.16-.59.34-1.17.54-1.74.05-.36.11-.69.16-1,.06-.34.14-.68.23-1.01.11-.4.15-.82.11-1.23-.02-.42.02-.83.12-1.24v-.77c.2-.86.2-1.76,0-2.62l-.03-.14ZM74.91,176.06c-.05.24-.07.48-.07.73v.74c-.05.19-.08.38-.08.57,0,.2-.03.39-.07.58-.16.58-.29,1.12-.39,1.64-.11.53-.27,1.04-.47,1.54-.5,1.2-1.21,2.31-2.08,3.28-.92.93-2.04,1.65-3.28,2.08-.37.16-.76.26-1.16.3-.42.05-.83.13-1.24.24h-.61c-.22.04-.44.04-.66,0-.22-.02-.44-.06-.66-.11-.18-.04-.36-.04-.54,0-.18.02-.37,0-.54-.04-.46-.1-.91-.23-1.35-.39-.43-.15-.83-.36-1.2-.62-1.13-.62-2.09-1.51-2.81-2.58-.69-1.18-1.24-2.44-1.64-3.75-.1-.38-.17-.81-.23-1.2-.06-.4-.13-.8-.23-1.19v-.7c-.12-.54-.19-1.09-.19-1.64-.05-.55,0-1.1.11-1.64v-.77c0-.26.02-.52.07-.77.1-.58.19-1.15.27-1.7.07-.56.18-1.1.34-1.64.43-1.32,1.07-2.55,1.89-3.67.81-1.08,1.89-1.93,3.12-2.46.27-.16.57-.28.89-.34l1.04-.27c.18-.04.36-.04.54,0,.19.03.38-.01.54-.11h1.39c.44-.03.89.01,1.32.11.35.11.69.19,1,.27.31.08.61.17.93.27,1.2.5,2.25,1.28,3.08,2.28.83,1.05,1.5,2.2,2.01,3.44.16.41.27.84.34,1.27.08.44.17.87.27,1.28.06.15.09.3.08.46.05.27.07.54.07.82,0,.28.05.56.16.82v.62c.06.37.08.74.07,1.12,0,.38-.02.75-.07,1.12h.02Z"/>
    <path class="cls-1" d="M43.27,173.57c-.06-.31-.12-.66-.12-.93v-.82c-.16-.72-.27-1.42-.35-2.08-.07-.66-.21-1.31-.42-1.94-.11-.36-.2-.71-.31-1.04-.11-.34-.2-.66-.31-.97-.21-.64-.49-1.26-.82-1.85-.09-.17-.16-.35-.2-.53-.02-.15-.09-.28-.19-.39-.26-.46-.53-.92-.82-1.39-.3-.48-.62-.95-.97-1.39-.2-.25-.41-.5-.61-.73s-.43-.48-.7-.73c-1.51-1.49-3.29-2.68-5.25-3.52-2.36-.95-4.9-1.36-7.45-1.2-.17.11-.39.14-.58.08-.21-.06-.44-.06-.66,0-.47.1-.95.18-1.43.23-.46.05-.92.15-1.35.31-.83.24-1.63.56-2.39.96-.71.38-1.4.81-2.06,1.28-.38.28-.75.58-1.08.92-.36.37-.88.54-1.39.47-.1-.11-.19-.2-.27-.27-.09-.1-.15-.22-.19-.34-.19-.37-.31-.78-.35-1.2-.03-.4-.24-.75-.57-.97-.33-.26-.74-.4-1.16-.39h-6.29c-.33-.01-.66.04-.97.16-.36.11-.65.36-.82.7-.28.45-.41.97-.35,1.5v47.15c0,1.02.02,1.92.07,2.66.06.76.64,1.39,1.39,1.5h.61c.17.06.36.09.54.08h2.61c.36,0,.8.04,1.31.04h1.54c.47-.03.94-.09,1.39-.2.32-.06.61-.22.82-.47.28-.48.43-1.03.43-1.58v-11.69c-.03-.6,0-1.19.11-1.78.09-.26.15-.54.16-.82,0-.25.16-.47.39-.57.31-.26.66-.24,1.08.07l.96.71c.36.25.69.5,1,.73.32.24.65.46,1,.66.63.42,1.32.73,2.05.93.71.21,1.53.44,2.35.7.31.1.64.14.96.11.33-.02.66.01.97.11h.77c.38.11.78.11,1.16,0h.7c.34-.1.69-.15,1.04-.15.33,0,.65-.05.97-.16l1.64-.31c.55-.1,1.08-.28,1.58-.54.52-.25,1.02-.5,1.51-.73.47-.23.92-.5,1.34-.82l.82-.61c.29-.21.56-.44.82-.7l.54-.54c.41-.38.79-.81,1.12-1.2.35-.39.67-.8.97-1.22.46-.71.87-1.45,1.23-2.21.36-.78.72-1.59,1.08-2.46.2-.46.36-.94.47-1.43.1-.48.21-.96.3-1.43.15-.5.24-1.02.27-1.54.03-.55.12-1.1.27-1.64v-1c.13-.43.18-.87.16-1.31,0-.47-.02-.93-.07-1.39v-.87ZM32.4,176.22h-.06c0,.26-.04.52-.04.78v.77c-.16.72-.28,1.42-.39,2.08-.1.67-.28,1.32-.54,1.94-.48,1.17-1.13,2.26-1.93,3.24-.81.95-1.85,1.7-3.01,2.16-.41.16-.84.27-1.27.34-.46.08-.86.17-1.28.27-.33.04-.67.04-1,0-.31-.01-.62-.05-.93-.11-.18-.05-.36-.06-.54-.04-.18.03-.37.01-.54-.04-.89-.22-1.74-.56-2.54-1-1.09-.63-2.02-1.48-2.75-2.51-.72-1.14-1.27-2.37-1.64-3.67-.1-.3-.18-.61-.23-.93-.05-.31-.11-.62-.16-.93-.05-.27-.08-.54-.07-.82-.1-.19-.15-.4-.16-.61v-1.64c-.1-.26-.1-.56,0-.82.05-.27.05-.55,0-.82-.05-.25-.03-.51.07-.74,0-.34.02-.67.08-1,.1-.42.18-.85.23-1.28.05-.43.13-.85.23-1.27.44-1.38,1.05-2.7,1.81-3.94.74-1.18,1.84-2.1,3.13-2.63.31-.15.63-.27.96-.34.34-.07.68-.16,1.04-.27.18-.05.36-.07.54-.07.18,0,.37-.03.54-.08h1.43c.46,0,.91.05,1.35.16,1.56.34,2.99,1.09,4.17,2.16,1.07,1.13,1.89,2.47,2.39,3.94.21.43.37.88.46,1.35.11.48.2.99.31,1.5.1.35.15.72.16,1.08,0,.34.05.68.16,1.01v.69c.1.69.1,1.4,0,2.09Z"/>
    <path class="cls-1" d="M165.48,155.36c-.3-.27-.68-.43-1.08-.46-.49-.05-.98-.08-1.47-.08h-4.71c-.57,0-1.08.04-1.54.04-.42,0-.83.16-1.16.43-.34.23-.6.57-.74.97-.13.37-.27.78-.43,1.19-.26.67-.47,1.36-.66,2.05-.18.7-.39,1.4-.66,2.12-.72,2.16-1.41,4.3-2.08,6.41-.67,2.08-1.36,4.22-2.08,6.4-.2.62-.39,1.25-.54,1.89-.15.62-.36,1.23-.61,1.81-.11.25-.2.52-.31.77-.1.27-.23.53-.39.77-.07.09-.16.16-.27.2-.1.04-.19.11-.27.19-.49.1-.98-.2-1.12-.69-.18-.52-.34-.98-.5-1.39-.21-.46-.38-.94-.5-1.43-.13-.49-.27-.97-.43-1.43l-1.64-4.87c-.41-1.13-.82-2.26-1.16-3.43-.34-1.16-.75-2.33-1.16-3.52-.26-.63-.48-1.27-.66-1.93-.18-.66-.4-1.3-.66-1.94-.26-.75-.5-1.52-.74-2.39-.17-.78-.62-1.47-1.27-1.93-.4-.22-.85-.32-1.31-.31h-7.38l.02-.07c-.08.05-.17.07-.26.04-.09-.02-.19,0-.27.04-.16.03-.31.08-.46.15h-2.18c-.73.06-1.46-.21-1.97-.74-.21-.25-.34-.56-.39-.89-.05-.37-.08-.74-.08-1.12v-.82c-.04-.29-.04-.59,0-.89v-5.44c0-.32-.04-.63-.15-.93-.22-.53-.71-.9-1.28-.97-.68-.08-1.36-.12-2.04-.11h-5.17c-.13.05-.28.07-.42.04-.14-.04-.29-.04-.43,0-.51.15-.94.52-1.16,1.01-.11.37-.17.76-.16,1.16v6.1c0,.47-.04.93-.04,1.39-.02.43-.11.84-.27,1.24-.27.52-.8.86-1.39.89-.72.08-1.44.13-2.16.12-.23,0-.46-.01-.69-.04-.14-.02-.29,0-.43.04h-.71c-.87,0-1.79-.04-2.74-.04-.73.06-1.46-.21-1.97-.74-.21-.25-.34-.56-.39-.89-.05-.37-.08-.74-.07-1.12v-.82c-.04-.29-.04-.59,0-.89v-5.44c0-.32-.04-.63-.16-.93-.23-.5-.71-.84-1.25-.9-.68-.08-1.36-.12-2.05-.11h-5.17c-.14.05-.28.07-.43.04-.14-.04-.29-.04-.43,0-.51.15-.94.52-1.16,1.01-.11.37-.17.76-.16,1.16v7.49c-.02.43-.11.84-.27,1.24-.27.52-.8.86-1.39.89-.72.08-1.44.13-2.16.12-.23,0-.47-.01-.7-.04-.21-.03-.43.01-.61.11-.78.2-1.21.59-1.31,1.16-.12.74-.17,1.49-.16,2.24v1.64c.08.39.18.78.3,1.16.14.34.42.6.77.7.71.27,1.48.35,2.24.23.73-.12,1.48-.04,2.16.23.56.27.96.78,1.08,1.39.1.32.14.66.11,1v19.61c.02.26.02.51,0,.77-.04.23-.04.47,0,.7v.65c.05.12.08.25.07.39,0,.13.03.26.08.39.03.22.03.44,0,.66-.03.2.01.4.11.57.36,1.18.91,2.29,1.64,3.28l.39.34.39.34c.2.16.39.3.53.43.15.13.31.24.47.35.47.26.96.49,1.47.69.54.21,1.08.39,1.64.54l.93.16,1.01.16c.27.05.54.07.82.07.28,0,.55.03.82.08h.82c.23.04.47.04.7,0h1.59c.27.04.55.04.82,0,.17-.06.36-.07.54-.04.15.02.31.04.46.04h.77c.22-.1.46-.14.7-.11.24.02.48-.02.7-.12.78-.25,1.3-.99,1.27-1.81v-4.48c.02-.42-.09-.84-.3-1.2-.23-.34-.59-.57-1-.61-.49-.06-.98-.09-1.47-.08h-.82c-.14-.04-.29-.04-.43,0-.17.02-.34.01-.5-.04-.46-.1-.91-.22-1.35-.34-.4-.11-.76-.34-1.03-.66-.57-.71-.91-1.59-.97-2.5-.07-.96-.11-2.07-.11-3.36v-13.82c.05-.27.05-.55,0-.82-.05-.27-.05-.55,0-.82.08-.42.22-.82.42-1.2.19-.34.51-.58.89-.66.13-.1.3-.14.46-.11.18.03.37.01.54-.04.19-.04.39-.04.58,0,.22.01.44.01.66,0,.84,0,1.62-.05,2.32-.05.54.11,1.09.12,1.64.05.73-.12,1.48-.04,2.16.23.56.27.96.79,1.07,1.39.11.32.15.66.11,1v19.61c0,.26-.04.52-.04.77-.03.23-.02.47.04.7v.59c.05.12.08.25.07.39,0,.13.02.27.08.39.04.22.04.44,0,.66-.02.2.02.4.11.57.35,1.18.91,2.29,1.64,3.28l.39.34c.16.13.18.19.39.34.2.16.39.3.54.43.15.13.31.24.47.35.47.26.96.49,1.46.69.54.21,1.08.39,1.64.54l.93.16,1,.16c.27.05.54.07.82.07.28,0,.55.03.82.08h.82c.23.04.47.04.7,0h1.59c.27.04.55.04.82,0,.17-.06.36-.07.54-.04.15.02.31.04.47.04h.77c.22-.1.46-.14.7-.11.24.02.47-.02.69-.12.78-.25,1.31-.99,1.28-1.81v-4.48c.02-.42-.09-.84-.3-1.2-.23-.34-.6-.57-1.01-.61-.48-.06-.97-.09-1.46-.08h-.82c-.14-.04-.29-.04-.43,0-.17.02-.34.01-.5-.04-.46-.1-.91-.22-1.35-.34-.41-.11-.77-.34-1.04-.66-.57-.72-.9-1.59-.96-2.5-.08-.96-.12-2.07-.12-3.36v-13.82c.05-.27.05-.55,0-.82-.05-.27-.05-.55,0-.82.09-.42.23-.82.43-1.2.19-.34.51-.58.89-.66.13-.1.3-.14.46-.11.18.03.37.01.54-.04.19-.04.38-.04.57,0,.22.01.44.01.66,0,.89,0,1.71-.06,2.46-.06.22.64.47,1.28.75,1.91.09.12.14.27.16.43.01.18.06.35.15.5.83,1.93,1.58,3.97,2.28,6.03.7,2.06,1.46,4.07,2.28,6.02.25.61.47,1.22.66,1.85.18.63.4,1.25.66,1.85.41.98.81,1.96,1.12,2.94.3.98.71,1.96,1.12,2.94.41.98.8,1.96,1.16,2.97.36,1.01.7,2.03,1,3.05.11.26.16.54.16.82,0,.26.05.53.16.77.1.35.1.73,0,1.08-.07.32-.18.63-.31.93-.36,1.54-2.25,4.15-3.78,4.56-.19.1-.41.15-.62.15-.21,0-.41.03-.61.08l-2.74-.11c-.37,0-.86-.04-1.24,0-.35.01-.71.07-1.04.19-.61.26-1.66.92-1.63,2.11v1.38c.09,2.09.46,4.4,1.44,4.78,1.57.6,3.72,1.61,11.72.93,1.05-.09,3.63-1.41,4.71-2.78.55-.7,1.83-3.47,2.01-4.09.41-.84.82-1.73,1.16-2.66.34-.93,1.44-3.28,1.85-4.25.15-.29.27-.6.34-.93.09-.34.21-.67.34-1,1.02-2.52,1.99-5.08,2.89-7.68.91-2.6,1.87-5.19,2.89-7.76.26-.71.52-1.42.78-2.08.25-.66.49-1.31.77-2.08.28-.77.59-1.56.82-2.35.23-.8.51-1.54.82-2.36.72-1.8,1.41-3.64,2.08-5.52.67-1.87,1.36-3.71,2.08-5.52.16-.42.31-.82.46-1.24.15-.4.28-.81.39-1.23.22-.46.16-1-.16-1.39Z"/>
  </g>
  <g>
    <path class="cls-2" d="M252.37,177.23c0-.24-.11-.47-.31-.61-.34-.23-.75-.34-1.16-.31-.2.05-.39.09-.54.11-.16.02-.34.07-.54.11-.38.11-.77.19-1.16.24-.41.05-.83.13-1.23.23-.23.06-.46.08-.7.07-.66.16-1.33.26-2.01.31-.66.05-1.3.18-1.93.39-.41.1-.8.19-1.16.27-.37.08-.73.2-1.08.34-1.07.46-2.01,1.18-2.74,2.09-.8,1.11-1.1,2.51-.82,3.85.06.79.34,1.54.82,2.16.4.6.97,1.07,1.64,1.35.75.35,1.54.59,2.35.73.89.16,1.8.2,2.71.11.9-.06,1.79-.23,2.66-.5,1.22-.34,2.32-1.02,3.16-1.97.82-.98,1.42-2.13,1.78-3.35.1-.37.16-.74.19-1.12.03-.4.09-.81.2-1.2l.02-.73c.1-.59.1-1.18,0-1.77-.1-.26-.15-.54-.16-.82Z"/>
    <path class="cls-2" d="M197.81,173.44c-.1-.33-.15-.67-.15-1.01,0-.37-.06-.73-.16-1.08-.11-.51-.2-1.02-.31-1.5-.1-.47-.25-.92-.46-1.35-.51-1.47-1.33-2.81-2.39-3.94-1.17-1.08-2.61-1.83-4.17-2.16-.44-.1-.9-.16-1.35-.16h-1.43c-.18.05-.36.08-.54.08-.18,0-.36.03-.54.07-.36.11-.71.2-1.04.27-.33.08-.66.19-.97.34-1.29.53-2.38,1.45-3.12,2.63-.77,1.23-1.38,2.55-1.81,3.94-.11.42-.18.84-.23,1.27-.05.43-.13.86-.24,1.28-.06.33-.08.67-.07,1-.11.23-.13.49-.07.74.05.27.05.55,0,.82-.1.26-.1.56,0,.82v1.64c0,.21.05.42.15.61,0,.28.03.55.08.82.05.3.11.61.16.93.05.31.13.62.23.93.37,1.29.92,2.53,1.64,3.67.72,1.02,1.66,1.88,2.74,2.51.8.44,1.66.78,2.55,1,.18.05.36.07.54.04.18-.02.37,0,.54.04.31.06.62.1.93.11.33.04.67.04,1,0,.41-.1.82-.19,1.27-.27.44-.07.87-.19,1.28-.34,1.16-.47,2.2-1.21,3.01-2.16.8-.98,1.45-2.07,1.93-3.24.25-.62.44-1.27.54-1.94.1-.66.23-1.36.39-2.08v-1.54h.09c.11-.7.11-1.41,0-2.1v-.69Z"/>
    <path class="cls-6" d="M208.63,173.57c-.05-.31-.11-.66-.11-.93v-.82c-.16-.72-.27-1.42-.35-2.08-.07-.66-.21-1.31-.43-1.94-.1-.36-.2-.71-.3-1.04-.11-.34-.2-.66-.31-.97-.22-.64-.49-1.26-.82-1.85-.09-.17-.16-.35-.2-.53-.02-.15-.09-.28-.19-.39-.27-.46-.53-.93-.82-1.39-.29-.46-.61-.93-.97-1.39-.2-.25-.41-.5-.61-.73-.2-.23-.43-.48-.7-.73-3.32-3.36-7.95-5.08-12.65-4.71-.17.11-.39.14-.58.08-.21-.06-.44-.06-.66,0-.47.1-.95.18-1.43.23-.46.04-.92.15-1.35.31-.83.24-1.63.56-2.39.96-.72.39-1.41.81-2.08,1.28-.38.28-.74.58-1.07.92-.36.37-.88.54-1.39.47l-.27-.27c-.09-.1-.15-.22-.19-.34-.2-.37-.32-.78-.35-1.2-.03-.4-.24-.75-.57-.97-.33-.26-.74-.4-1.16-.39h-6.3c-.33-.01-.65.04-.96.16-.36.11-.65.36-.82.7-.28.45-.4.98-.34,1.5v1.86-.04s-.01,45.33-.01,45.33c0,1.02.02,1.92.07,2.66.06.76.64,1.39,1.39,1.5h.61c.17.06.36.09.54.08h2.61c.36,0,.8.04,1.31.04h1.54c.47-.03.94-.09,1.39-.2.32-.06.61-.22.82-.47.28-.48.43-1.03.43-1.58v-6.18h.09v-5.46c-.03-.6,0-1.19.11-1.78.09-.26.15-.54.16-.82,0-.25.16-.47.39-.57.3-.26.66-.24,1.07.07l.93.7,1.01.73c.32.24.65.46,1,.66.62.42,1.31.73,2.04.93.71.21,1.53.44,2.35.7.31.1.64.14.97.11.33-.02.66.01.97.11h.77c.38.11.78.11,1.16,0h.7c.34-.1.69-.15,1.04-.15.33,0,.65-.05.96-.16l1.64-.31c.55-.1,1.08-.28,1.58-.54l1.5-.73c.48-.23.93-.5,1.35-.82.26-.2.54-.41.82-.61.29-.22.56-.45.82-.7l.53-.54c.42-.38.79-.81,1.12-1.2.35-.4.67-.83.97-1.27.45-.71.86-1.45,1.23-2.21.36-.78.72-1.59,1.08-2.46.2-.46.36-.94.46-1.43.11-.48.21-.96.31-1.43.15-.5.24-1.02.27-1.54.03-.55.12-1.11.27-1.64v-1c.13-.43.18-.87.16-1.31.01-.47-.02-.93-.08-1.39l-.07-.87ZM197.81,176.22h-.09v1.55c-.16.72-.29,1.42-.39,2.08-.1.66-.29,1.31-.54,1.94-.48,1.17-1.13,2.26-1.93,3.24-.81.95-1.85,1.7-3.01,2.16-.41.16-.84.27-1.28.34-.45.08-.86.17-1.27.27-.33.04-.67.04-1,0-.31-.01-.62-.05-.93-.11-.18-.05-.36-.06-.54-.04-.18.03-.37.01-.54-.04-.89-.22-1.75-.56-2.55-1-1.08-.63-2.02-1.49-2.74-2.51-.72-1.14-1.27-2.37-1.64-3.67-.1-.3-.18-.61-.23-.93-.05-.31-.11-.62-.16-.93-.06-.27-.08-.54-.08-.82-.1-.19-.15-.4-.15-.61v-1.64c-.1-.26-.1-.56,0-.82.05-.27.05-.55,0-.82-.06-.25-.03-.51.07-.74-.01-.34.01-.67.07-1,.11-.42.19-.85.24-1.28.05-.43.12-.85.23-1.27.44-1.38,1.05-2.7,1.81-3.94.74-1.18,1.83-2.1,3.12-2.63.31-.15.63-.27.97-.34.34-.07.68-.16,1.04-.27.18-.05.36-.07.54-.07.18,0,.37-.03.54-.08h1.43c.46,0,.91.05,1.35.16,1.56.34,2.99,1.09,4.17,2.16,1.07,1.13,1.88,2.47,2.39,3.94.21.43.36.88.46,1.35.11.48.2.99.31,1.5.1.35.15.72.16,1.08,0,.34.05.68.15,1.01v.69c.11.69.11,1.4,0,2.09Z"/>
    <path class="cls-6" d="M222.46,189.96v-46.4c0-.62-.04-1.22-.04-1.82,0-.52-.18-1.02-.5-1.43-.3-.27-.68-.43-1.08-.46-.49-.06-.98-.08-1.47-.08h-5.63v.03c-.12,0-.25,0-.38,0-.13.02-.26.04-.39.04-.2.1-.4.2-.58.3-.18.11-.33.27-.43.47-.3.63-.42,1.32-.34,2.01.04.93.04,1.72.04,2.39v47.97c-.01.45.17.89.5,1.2.33.27.73.42,1.16.46.51.05,1.03.08,1.54.08h3.71c.37,0,.75.03,1.12.07.35.05.7.03,1.04-.07.56-.08,1.06-.37,1.39-.82.29-.56.41-1.19.34-1.81v-2.12Z"/>
    <path class="cls-6" d="M263.84,191.62c-.05-.16-.08-.33-.07-.5,0-.17-.03-.34-.08-.5-.21-.9-.31-1.82-.3-2.74v-20.2c0-1.18-.02-2.34-.08-3.47-.03-1.03-.24-2.06-.61-3.02-.56-1.42-1.46-2.68-2.62-3.67-1.2-.99-2.58-1.76-4.05-2.28-1.7-.59-3.46-.98-5.25-1.16-2.01-.21-4.04-.29-6.06-.23-.11.07-.38.13-.82.07-.32-.05-.64-.05-.96,0-.66.16-1.33.26-2.01.31-.65.05-1.29.15-1.93.31-1.03.3-2.03.62-3.01.96-.98.34-1.91.79-2.78,1.35-.26.16-.49.31-.7.46l-.7.54c-.14.15-.29.28-.46.39-.58.48-1.1,1.03-1.54,1.64l-.47.77-.46.78c-.27.42-.49.87-.66,1.34-.18.49-.35,1.02-.5,1.58-.06.21-.11.44-.16.7-.06.25-.06.52,0,.77.06.46.38.85.82,1.01.1.1.24.16.39.16.13,0,.26.02.39.07h.7c.23.05.46.07.7.04.25-.04.52-.04.77-.04h4.32c.44,0,.88-.05,1.31-.16.5-.1.92-.45,1.12-.93.19-.46.4-.95.66-1.47.14-.36.34-.7.58-1,.24-.3.52-.58.82-.82.26-.21.54-.4.82-.57.27-.18.57-.32.89-.43.53-.18,1.08-.3,1.64-.39.64-.11,1.28-.17,1.93-.2.66-.03,1.32,0,1.97.08.56.06,1.11.17,1.64.34,1.55.45,2.77,1.64,3.28,3.16.05.18.09.36.11.54.02.21.06.41.11.61v.47c.01.16-.02.32-.08.46-.04.1-.04.21,0,.31.02.13,0,.26-.04.39-.17.59-.49,1.12-.93,1.54-.66.69-1.52,1.16-2.46,1.35-.89.18-1.89.4-2.97.66-.38.1-.77.15-1.16.16-.37,0-.73.05-1.08.16-.38.1-.77.14-1.16.11-.36-.02-.73.02-1.08.11-.46.11-.92.17-1.39.2-.44.02-.88.09-1.31.19-.72.16-1.44.29-2.16.39-.71.11-1.41.29-2.08.54-1.53.46-2.98,1.14-4.32,2.01-1.24.89-2.27,2.05-3.01,3.39-.27.5-.47,1.03-.61,1.58-.16.6-.31,1.17-.47,1.74,0,.44-.06.88-.15,1.31-.05.35-.05.7,0,1.04,0,.33.04.65.11.97.05.25.06.51.04.77-.03.26,0,.53.11.77.1.5.21.91.34,1.32.13.41.27.8.43,1.16.54,1.38,1.4,2.61,2.51,3.59,1.14.95,2.43,1.69,3.82,2.2.41.21.86.35,1.31.43.46.07.95.16,1.46.27.31.1.64.14.97.11.35-.03.7.01,1.04.11h.7c.51.11,1.03.11,1.54,0h.82c.15,0,.31-.02.46-.04.16-.01.31-.01.47,0,.36-.06.71-.12,1.04-.12.35-.03.7-.09,1.04-.19l2.24-.58c.72-.18,1.41-.42,2.08-.73l.93-.47c.29-.15.56-.33.82-.53.26-.11.51-.24.74-.39.23-.15.48-.28.73-.39.2-.05.42-.04.61.04.14.06.28.16.39.27.32.26.57.59.74.97.17.38.46.69.82.89.3.22.67.34,1.04.34.43.04.89.04,1.34.04h5.4c.37,0,.74-.07,1.08-.23.52-.13.87-.62.82-1.16-.02-.57-.09-1.14-.2-1.71l-.02-.09ZM252.53,179.83l-.02.73c-.1.39-.17.79-.2,1.2-.02.38-.09.76-.19,1.12-.36,1.23-.96,2.37-1.78,3.35-.84.95-1.94,1.63-3.16,1.97-.86.27-1.75.44-2.66.5-.9.08-1.81.04-2.71-.11-.81-.14-1.6-.38-2.35-.73-.67-.28-1.24-.75-1.64-1.35-.48-.63-.76-1.38-.82-2.16-.28-1.34.02-2.74.82-3.85.73-.91,1.67-1.63,2.74-2.09.35-.15.71-.26,1.08-.34.36-.08.75-.17,1.16-.27.62-.21,1.27-.34,1.93-.39.68-.05,1.35-.16,2.01-.31.23,0,.47-.02.7-.07.4-.1.82-.18,1.23-.23.39-.05.78-.13,1.16-.24.2-.05.39-.09.54-.11.16-.02.34-.07.54-.11.41-.03.82.08,1.16.31.2.14.32.37.31.61,0,.28.06.56.16.82.1.59.1,1.18,0,1.77Z"/>
    <path class="cls-6" d="M304.93,165.66c-.1-.35-.16-.72-.19-1.08-.03-.39-.1-.78-.2-1.16-.2-.67-.41-1.33-.61-1.97-.19-.64-.47-1.25-.82-1.82-1.16-1.89-2.85-3.39-4.86-4.32-2.43-1.05-5.08-1.5-7.72-1.31l.02.02c-.2.06-.41.07-.61.04-.23-.05-.47-.05-.7,0-.57.11-1.09.18-1.58.23-.49.05-.96.16-1.43.31-1.65.59-3.21,1.42-4.63,2.46-.44.29-.83.64-1.16,1.04-.33.43-.85.65-1.39.58l-.34-.23c-.13-.13-.23-.29-.27-.47-.1-.13-.15-.3-.12-.46.04-.18.04-.36,0-.54-.09-.37-.21-.73-.35-1.08-.14-.32-.4-.57-.73-.7-.34-.1-.69-.17-1.04-.19-.38-.04-.79-.04-1.2-.04h-4.05c-.28,0-.55.02-.82.08h-.39c-.25.05-.5.11-.74.19-.2.06-.38.18-.5.35-.26.33-.41.74-.42,1.16-.04.46-.04.98-.04,1.54v31.46c0,.76-.04,1.58-.04,2.46-.07.71.11,1.42.5,2.01.33.33.77.53,1.24.54.58.05,1.15.07,1.7.07h3.86c.7.01,1.39-.04,2.08-.16.55-.1,1.02-.48,1.23-1,.17-.36.25-.76.24-1.16v-15.71c-.02-2.56.13-5.11.46-7.65.2-2.06,1.26-3.95,2.94-5.17.87-.58,1.84-.99,2.85-1.23.15-.05.3-.08.46-.08.18,0,.36-.03.54-.07.29-.06.59-.1.89-.11.32-.04.65-.04.97,0,.28.1.58.15.89.16.28,0,.56.05.82.16,1.28.33,2.4,1.1,3.16,2.16.8,1.23,1.28,2.64,1.39,4.1.15,1.62.23,3.38.23,5.29v18.51c0,.42.13.84.35,1.2.27.36.67.6,1.12.66.54.08,1.09.12,1.64.11h5.4c.37,0,.73-.04,1.08-.16.73-.26,1.19-.97,1.12-1.74v-24.43c0-.75-.05-1.5-.15-2.24-.07-.2-.1-.41-.08-.61Z"/>
    <path class="cls-6" d="M330.09,186.67c-.49-.06-.98-.09-1.47-.08h-.82c-.14-.04-.29-.04-.43,0-.17.02-.34.01-.5-.04-.46-.1-.91-.22-1.35-.34-.41-.11-.77-.34-1.04-.66-.56-.72-.9-1.59-.97-2.5-.07-.96-.11-2.07-.11-3.36v-13.82c.05-.27.05-.55,0-.82-.05-.27-.05-.55,0-.82.09-.42.23-.82.43-1.2.19-.34.51-.58.89-.66.14-.1.3-.14.47-.11.18.03.37.01.54-.04.19-.04.38-.04.57,0,.22.01.44.01.66,0,1.03,0,1.96-.02,2.78-.07.78,0,1.46-.55,1.64-1.31.1-.3.14-.61.11-.93-.04-.36-.04-.72-.04-1.08,0-.75-.03-1.5-.11-2.24-.04-.61-.41-1.15-.97-1.39-.26-.1-.54-.15-.82-.15h-.93c-.88,0-1.79-.04-2.74-.04-.73.06-1.46-.21-1.97-.74-.21-.25-.34-.56-.39-.89-.06-.37-.09-.74-.08-1.12v-.82c-.04-.29-.04-.59,0-.89v-5.44c0-.32-.04-.63-.15-.93-.22-.53-.71-.9-1.28-.97-.68-.08-1.36-.12-2.04-.11h-5.17v.05c-.13.05-.28.07-.42.04-.14-.04-.29-.04-.43,0-.51.15-.94.52-1.16,1.01-.11.37-.17.76-.16,1.16v6.1c0,.47-.04.93-.04,1.39-.02.43-.11.84-.27,1.24-.27.52-.8.86-1.39.89-.72.08-1.44.13-2.16.12-.23,0-.47-.01-.7-.04-.21-.03-.43.01-.61.11-.77.2-1.21.59-1.31,1.16-.11.74-.17,1.49-.16,2.24v1.64c.08.39.19.78.31,1.16.13.34.42.6.77.7.71.27,1.48.35,2.24.23.73-.12,1.48-.04,2.16.23.56.27.96.79,1.07,1.39.11.32.15.66.11,1v19.61c0,.26-.04.52-.04.77-.03.23-.02.47.04.7v.58c.05.12.08.25.07.39,0,.13.02.27.08.39.04.22.04.44,0,.66-.02.2.02.4.11.57.35,1.18.91,2.29,1.64,3.28.1.1.23.21.39.34.16.13.18.19.39.34.2.16.39.3.54.43.15.13.31.24.47.35.47.26.96.49,1.46.69.54.21,1.08.39,1.64.54l.93.16,1,.16c.27.05.54.07.82.07.28,0,.55.03.82.08h.82c.23.04.47.04.7,0h1.59c.27.04.55.04.82,0,.17-.06.36-.07.54-.04.15.02.31.04.47.04h.77c.21-.1.45-.14.69-.11.24.02.48-.02.7-.12.78-.25,1.31-.99,1.28-1.81v-4.48c.02-.42-.09-.84-.3-1.2-.23-.34-.6-.57-1.01-.61Z"/>
  </g>
</svg>