<svg width="260" height="49" viewBox="0 0 260 49" fill="none" xmlns="http://www.w3.org/2000/svg">
<path d="M10.4172 35.6067C10.8865 36.5297 11.5702 37.328 12.4115 37.9356C13.2928 38.5535 14.2827 39.0014 15.3299 39.2563C16.4626 39.5464 17.6279 39.692 18.7977 39.6894C19.6684 39.6845 20.5376 39.6168 21.3985 39.487C22.2997 39.359 23.1764 39.0969 23.9993 38.7095C24.7861 38.3437 25.4782 37.8033 26.0222 37.1297C26.5814 36.3954 26.8664 35.4905 26.8285 34.57C26.848 34.0704 26.7629 33.5723 26.5787 33.1072C26.3944 32.6421 26.115 32.2202 25.7582 31.8683C24.9468 31.115 23.9938 30.5286 22.954 30.1429C21.6773 29.6446 20.3656 29.24 19.0296 28.9323C17.5668 28.5891 16.0838 28.2057 14.5806 27.782C13.0498 27.4006 11.5438 26.9264 10.0711 26.3619C8.66413 25.8384 7.34192 25.1123 6.14665 24.207C4.9831 23.322 4.02433 22.1984 3.33531 20.9124C2.58386 19.4243 2.21605 17.7737 2.26501 16.109C2.21678 14.1903 2.68615 12.2938 3.6243 10.6168C4.51717 9.08062 5.7344 7.7555 7.19198 6.73293C8.69588 5.68132 10.3747 4.9025 12.1511 4.4324C13.959 3.94065 15.8245 3.68995 17.6988 3.68686C19.7903 3.67627 21.8755 3.91464 23.9101 4.3969C25.8047 4.83682 27.5994 5.62682 29.201 6.72583C30.7311 7.7934 31.9875 9.20412 32.8686 10.8441C33.7748 12.5126 34.2279 14.5363 34.2279 16.9149H25.4442C25.4073 15.8599 25.1407 14.8255 24.6629 13.883C24.2495 13.1095 23.6424 12.4553 22.9005 11.9837C22.1338 11.5113 21.2878 11.1806 20.4031 11.0074C19.3784 10.7964 18.3349 10.6893 17.2885 10.6878C16.5511 10.6891 15.8158 10.7664 15.0944 10.9186C14.3846 11.0715 13.7095 11.3544 13.1036 11.7529C12.519 12.1197 12.0173 12.6033 11.6302 13.173C11.2229 13.8271 11.0216 14.5875 11.0522 15.3563C11.0215 16.0381 11.1808 16.7151 11.5124 17.3125C11.8228 17.8131 12.4293 18.2711 13.3355 18.6935C14.549 19.2213 15.8059 19.6441 17.0923 19.9574C18.6906 20.3834 20.7777 20.9219 23.3536 21.5727C24.1242 21.7266 25.1945 22.0047 26.5645 22.407C28.0099 22.8465 29.3827 23.4948 30.6388 24.3312C32.0348 25.2656 33.2245 26.4737 34.1351 27.8814C35.1174 29.3583 35.6086 31.2458 35.6086 33.544C35.6242 35.3477 35.2494 37.1337 34.5097 38.7805C33.7659 40.4059 32.6475 41.8338 31.2453 42.9485C29.6478 44.1973 27.8218 45.1257 25.8688 45.6821C23.4547 46.3701 20.9517 46.6991 18.4409 46.6584C16.2092 46.6642 13.9861 46.3838 11.8264 45.8241C9.78837 45.317 7.86577 44.4291 6.16092 43.2076C4.52087 42.0172 3.18409 40.4609 2.25787 38.6634C1.29936 36.8173 0.839124 34.628 0.87718 32.0955H9.66438C9.62659 33.3092 9.88488 34.514 10.4172 35.6067Z" fill="black" stroke="black" stroke-width="0.824317" stroke-miterlimit="10"/>
<path d="M58.2154 15.6151C57.673 14.7509 56.9893 13.9829 56.1925 13.343C54.5027 11.9979 52.4019 11.2677 50.2381 11.2732C48.431 11.2214 46.6405 11.6295 45.0364 12.459C43.6411 13.2198 42.4514 14.305 41.5686 15.6222C40.6596 17.0012 40.0048 18.5304 39.6349 20.1381C39.2248 21.8523 39.02 23.6089 39.0248 25.371C39.021 27.0664 39.2259 28.7559 39.6349 30.4017C40.0112 31.9719 40.666 33.4626 41.5686 34.8039C42.4575 36.1084 43.6463 37.1831 45.0364 37.9387C46.6412 38.7657 48.4316 39.1714 50.2381 39.1174C53.0137 39.1174 55.1817 38.2736 56.7419 36.5861C58.3022 34.8986 59.2536 32.675 59.5961 29.9153H68.3797C68.1935 32.3199 67.59 34.6742 66.5959 36.8737C65.686 38.869 64.39 40.6665 62.782 42.1635C61.1765 43.6367 59.2882 44.7719 57.2307 45.5006C54.9855 46.2884 52.6186 46.6777 50.2381 46.6509C47.3136 46.6967 44.4113 46.1382 41.7149 45.0107C39.2829 43.9878 37.1037 42.4505 35.3287 40.5055C33.5654 38.5406 32.2098 36.2482 31.34 33.7601C30.3985 31.0708 29.929 28.2402 29.9522 25.3923C29.9261 22.4875 30.3953 19.5992 31.34 16.8506C32.2046 14.3132 33.5596 11.9687 35.3287 9.94899C37.0944 7.96628 39.2739 6.39117 41.7149 5.33374C46.4773 3.37799 51.7758 3.13445 56.6991 4.645C58.6634 5.26528 60.5018 6.22685 62.1291 7.48516C63.7431 8.74759 65.0892 10.3163 66.0893 12.1004C67.1665 14.0558 67.8351 16.2077 68.0551 18.4269H59.2536C59.1048 17.4287 58.7514 16.4717 58.2154 15.6151Z" fill="black" stroke="black" stroke-width="0.824317" stroke-miterlimit="10"/>
<path d="M97.6465 12.2558V4.65479H131.454V12.2558H119.092V45.7305H110.016V12.2558H97.6465Z" fill="black" stroke="black" stroke-width="0.824317" stroke-miterlimit="10"/>
<path d="M147.528 4.65572C149.333 4.64037 151.133 4.8141 152.901 5.17405C154.387 5.4628 155.802 6.03939 157.065 6.87104C158.224 7.66035 159.151 8.74229 159.751 10.0059C160.435 11.5258 160.763 13.1803 160.711 14.8448C160.711 16.9181 160.235 18.6435 159.284 20.021C158.216 21.5044 156.769 22.6763 155.092 23.4149C157.634 24.1415 159.537 25.4161 160.8 27.2385C162.063 29.0609 162.689 31.2561 162.677 33.8241C162.725 35.6892 162.309 37.5372 161.464 39.2027C160.687 40.6799 159.568 41.9517 158.199 42.9126C156.78 43.896 155.194 44.6175 153.518 45.0427C151.755 45.5114 149.938 45.75 148.113 45.7528H128.109V4.65572H147.528ZM146.372 21.2777C147.792 21.3401 149.194 20.94 150.365 20.1381C151.402 19.3713 151.921 18.1252 151.924 16.3998C151.956 15.5826 151.776 14.7709 151.403 14.0424C151.074 13.4558 150.595 12.9659 150.015 12.6224C149.401 12.2664 148.726 12.0257 148.024 11.9123C147.25 11.7756 146.466 11.7078 145.68 11.71H137.182V21.2884L146.372 21.2777ZM146.893 38.7021C147.747 38.706 148.598 38.6191 149.433 38.4429C150.195 38.292 150.921 37.9993 151.574 37.5802C152.198 37.1695 152.706 36.6059 153.047 35.9436C153.442 35.1187 153.63 34.2114 153.597 33.2987C153.597 31.1899 153.002 29.6846 151.813 28.7828C150.624 27.8811 149.043 27.4302 147.072 27.4302H137.189V38.7021H146.893Z" fill="black" stroke="black" stroke-width="0.824317" stroke-miterlimit="10"/>
<path d="M182.437 4.65479L197.867 45.7305H188.445L185.326 36.5852H169.893L166.657 45.7305H157.523L173.128 4.65479H182.437ZM182.954 29.8612L177.752 14.787H177.638L172.262 29.8612H182.954Z" fill="black" stroke="black" stroke-width="0.824317" stroke-miterlimit="10"/>
<path d="M215.493 45.4122C213.612 46.2186 211.587 46.6388 209.538 46.6477C206.616 46.6926 203.717 46.1341 201.022 45.0075C198.589 43.9876 196.407 42.4527 194.629 40.5094C192.866 38.5446 191.51 36.2521 190.64 33.7641C189.694 31.0659 189.224 28.2254 189.249 25.3679C189.223 22.463 189.692 19.5748 190.637 16.8261C191.505 14.2988 192.86 11.9642 194.626 9.95292C196.397 7.97794 198.58 6.41137 201.022 5.36252C203.715 4.21824 206.619 3.65091 209.546 3.69747C211.633 3.69604 213.708 4.01823 215.696 4.65248C217.638 5.26241 219.456 6.20691 221.069 7.44293C222.747 8.72533 224.136 10.3432 225.146 12.1923C226.157 14.0413 226.768 16.0806 226.938 18.1787H218.269C217.726 15.8782 216.686 14.1528 215.147 13.0025C213.521 11.8253 211.548 11.2184 209.538 11.2771C207.731 11.2253 205.941 11.6334 204.337 12.4629C202.942 13.2246 201.753 14.3097 200.869 15.6261C199.96 17.0051 199.305 18.5343 198.935 20.142C198.526 21.8564 198.323 23.6129 198.329 25.375C198.324 27.0702 198.528 28.7596 198.935 30.4056C199.312 31.9758 199.966 33.4665 200.869 34.8078C201.759 36.1115 202.947 37.186 204.337 37.9426C205.942 38.7697 207.732 39.1754 209.538 39.1213C212.545 39.1213 214.866 38.3639 216.503 36.8492C218.139 35.3344 219.09 33.1392 219.357 30.2636H210.234V23.5182H227.573V45.7282H221.793L220.869 41.0704C219.25 43.1389 217.458 44.5862 215.493 45.4122Z" fill="black" stroke="black" stroke-width="0.824317" stroke-miterlimit="10"/>
<path d="M233.758 35.6112C234.228 36.5342 234.911 37.3326 235.753 37.9401C236.634 38.5573 237.624 39.0053 238.671 39.2608C239.804 39.551 240.969 39.6965 242.139 39.6939C243.01 39.6893 243.879 39.6216 244.74 39.4916C245.641 39.3635 246.518 39.1014 247.341 38.7141C248.129 38.3501 248.821 37.8094 249.364 37.1342C249.924 36.4003 250.21 35.4954 250.173 34.5745C250.194 34.0749 250.109 33.5766 249.924 33.1114C249.74 32.6462 249.46 32.2244 249.103 31.8728C248.292 31.1195 247.339 30.5331 246.299 30.1474C245.022 29.6494 243.71 29.2448 242.374 28.9368C240.908 28.5818 239.428 28.2268 237.922 27.7866C236.392 27.4057 234.887 26.9314 233.416 26.3665C232.009 25.8432 230.687 25.1172 229.492 24.2115C228.329 23.3227 227.373 22.1954 226.687 20.9063C225.938 19.4176 225.57 17.7674 225.617 16.1029C225.569 14.1847 226.037 12.2887 226.973 10.6107C227.865 9.07397 229.082 7.7487 230.54 6.72681C232.047 5.67368 233.73 4.89478 235.51 4.42629C237.318 3.93479 239.184 3.68409 241.058 3.68075C243.151 3.67034 245.237 3.90871 247.273 4.39079C249.166 4.83073 250.96 5.62074 252.56 6.71971C254.091 7.78415 255.349 9.19257 256.231 10.8308C257.133 12.4994 257.585 14.523 257.587 16.9017H248.786C248.746 15.8527 248.48 14.8246 248.004 13.8876C247.591 13.1141 246.984 12.4599 246.242 11.9882C245.475 11.5159 244.629 11.1851 243.744 11.0119C242.719 10.8004 241.674 10.6934 240.626 10.6924C239.888 10.6934 239.151 10.7707 238.429 10.9231C237.721 11.0775 237.049 11.3603 236.445 11.7574C235.861 12.1251 235.36 12.6085 234.972 13.1775C234.564 13.8316 234.363 14.592 234.394 15.3609C234.362 16.0432 234.523 16.7207 234.857 17.317C235.164 17.8176 235.771 18.2756 236.677 18.6981C237.891 19.2247 239.148 19.6475 240.434 19.9619C242.032 20.3856 244.123 20.9229 246.706 21.5737C247.476 21.7264 248.543 22.0033 249.917 22.408C251.362 22.8467 252.735 23.4951 253.991 24.3322C255.388 25.2656 256.578 26.4738 257.487 27.8824C258.469 29.3593 258.961 31.2468 258.961 33.545C258.976 35.3487 258.601 37.1347 257.862 38.7815C257.118 40.4068 256 41.8348 254.597 42.9494C253 44.1983 251.174 45.1267 249.221 45.6831C246.808 46.3708 244.306 46.6998 241.796 46.6594C239.564 46.6654 237.339 46.385 235.178 45.8251C233.14 45.318 231.218 44.4301 229.513 43.2086C227.874 42.0181 226.538 40.4617 225.613 38.6644C224.662 36.8254 224.199 34.6396 224.226 32.1071H233.009C232.972 33.3182 233.229 34.5203 233.758 35.6112Z" fill="black" stroke="black" stroke-width="0.824317" stroke-miterlimit="10"/>
<path d="M94.2411 27.4403C85.0757 10.9852 41.707 49.9202 60.4302 47.1404C86.7418 43.2351 93.4812 50.1509 110.481 47.1404C129.204 43.8209 103.032 25.5871 94.2411 18.1708C85.4503 10.7544 88.8896 1.48486 88.8896 1.48486C88.8896 1.48486 74.1872 5.89775 71.7041 28.8427" fill="#FFCD00"/>
<path d="M94.2411 27.4403C85.0757 10.9852 41.707 49.9202 60.4302 47.1404C86.7418 43.2351 93.4812 50.1509 110.481 47.1404C129.204 43.8209 103.032 25.5871 94.2411 18.1708C85.4503 10.7544 88.8896 1.48486 88.8896 1.48486C88.8896 1.48486 74.1872 5.89775 71.7041 28.8427" stroke="#231F20" stroke-width="1.64863" stroke-miterlimit="10"/>
<path d="M76.5005 20.0964C79.0778 20.0964 81.167 18.0174 81.167 15.4527C81.167 12.8881 79.0778 10.8091 76.5005 10.8091C73.9233 10.8091 71.834 12.8881 71.834 15.4527C71.834 18.0174 73.9233 20.0964 76.5005 20.0964Z" fill="#FFCD00" stroke="#231F20" stroke-width="1.64863" stroke-miterlimit="10"/>
<path d="M76.8831 18.8354C78.1658 18.8354 79.2057 17.7704 79.2057 16.4568C79.2057 15.1431 78.1658 14.0781 76.8831 14.0781C75.6004 14.0781 74.5605 15.1431 74.5605 16.4568C74.5605 17.7704 75.6004 18.8354 76.8831 18.8354Z" fill="#231F20"/>
<path d="M90.0552 20.0964C92.6325 20.0964 94.7217 18.0174 94.7217 15.4527C94.7217 12.8881 92.6325 10.8091 90.0552 10.8091C87.4779 10.8091 85.3887 12.8881 85.3887 15.4527C85.3887 18.0174 87.4779 20.0964 90.0552 20.0964Z" fill="#FFCD00" stroke="#231F20" stroke-width="1.64863" stroke-miterlimit="10"/>
<path d="M90.055 18.8354C91.3377 18.8354 92.3775 17.7704 92.3775 16.4568C92.3775 15.1431 91.3377 14.0781 90.055 14.0781C88.7723 14.0781 87.7324 15.1431 87.7324 16.4568C87.7324 17.7704 88.7723 18.8354 90.055 18.8354Z" fill="#231F20"/>
</svg>
